<?xml version="1.0" encoding="UTF-8" standalone="no"?>
<!DOCTYPE svg PUBLIC "-//W3C//DTD SVG 1.1//EN"
 "http://www.w3.org/Graphics/SVG/1.1/DTD/svg11.dtd">
<!-- Generated by graphviz version 2.40.1 (20161225.0304)
 -->
<!-- Title: twoDegreesRelationshipsDiagram Pages: 1 -->
<svg width="756pt" height="402pt"
 viewBox="0.00 0.00 756.00 402.20" xmlns="http://www.w3.org/2000/svg" xmlns:xlink="http://www.w3.org/1999/xlink">
<g id="graph0" class="graph" transform="scale(1 1) rotate(0) translate(4 398.2)">
<title>twoDegreesRelationshipsDiagram</title>
<polygon fill="#ffffff" stroke="transparent" points="-4,4 -4,-398.2 752,-398.2 752,4 -4,4"/>
<text text-anchor="middle" x="72.4936" y="-7.3" font-family="Helvetica,sans-Serif" font-size="11.00" fill="#000000">Generated by SchemaSpy</text>
<!-- teams -->
<g id="node1" class="node">
<title>teams</title>
<g id="a_node1"><a xlink:href="../../tables/teams.html" xlink:title="teams" target="_top">
<polygon fill="#ffffff" stroke="transparent" points="309.5,-38.2 309.5,-209.2 410.5,-209.2 410.5,-38.2 309.5,-38.2"/>
<polygon fill="#f5f5f5" stroke="transparent" points="310,-185.7 310,-208.7 411,-208.7 411,-185.7 310,-185.7"/>
<polygon fill="none" stroke="#000000" points="310,-185.7 310,-208.7 411,-208.7 411,-185.7 310,-185.7"/>
<text text-anchor="start" x="315" y="-194.3" font-family="Helvetica,sans-Serif" font-weight="bold" font-size="11.00" fill="#000000">teams</text>
<text text-anchor="start" x="376.0437" y="-193.8" font-family="Helvetica,sans-Serif" font-size="11.00" fill="#000000">[table]</text>
<polygon fill="none" stroke="#000000" points="310,-163.7 310,-185.7 411,-185.7 411,-163.7 310,-163.7"/>
<image xlink:href="../../images/primaryKeys.png" width="11px" height="12px" preserveAspectRatio="xMinYMin meet" x="315" y="-180.7"/>
<text text-anchor="start" x="330" y="-170.8" font-family="Helvetica,sans-Serif" font-size="11.00" fill="#000000">id</text>
<polygon fill="none" stroke="#000000" points="310,-141.7 310,-163.7 411,-163.7 411,-141.7 310,-141.7"/>
<image xlink:href="../../images/foreignKeys.png" width="11px" height="12px" preserveAspectRatio="xMinYMin meet" x="315" y="-158.7"/>
<text text-anchor="start" x="330" y="-148.8" font-family="Helvetica,sans-Serif" font-size="11.00" fill="#000000">workspace_id</text>
<polygon fill="none" stroke="#000000" points="310,-119.7 310,-141.7 411,-141.7 411,-119.7 310,-119.7"/>
<image xlink:href="../../images/foreignKeys.png" width="11px" height="12px" preserveAspectRatio="xMinYMin meet" x="315" y="-136.7"/>
<text text-anchor="start" x="330" y="-126.8" font-family="Helvetica,sans-Serif" font-size="11.00" fill="#000000">created_by</text>
<polygon fill="none" stroke="#000000" points="310,-97.7 310,-119.7 411,-119.7 411,-97.7 310,-97.7"/>
<image xlink:href="../../images/foreignKeys.png" width="11px" height="12px" preserveAspectRatio="xMinYMin meet" x="315" y="-114.7"/>
<text text-anchor="start" x="330" y="-104.8" font-family="Helvetica,sans-Serif" font-size="11.00" fill="#000000">updated_by</text>
<polygon fill="none" stroke="#000000" points="310,-75.7 310,-97.7 411,-97.7 411,-75.7 310,-75.7"/>
<image xlink:href="../../images/foreignKeys.png" width="11px" height="12px" preserveAspectRatio="xMinYMin meet" x="315" y="-92.7"/>
<text text-anchor="start" x="330" y="-82.8" font-family="Helvetica,sans-Serif" font-size="11.00" fill="#000000">deleted_by</text>
<polygon fill="none" stroke="#000000" points="310,-56.7 310,-75.7 411,-75.7 411,-56.7 310,-56.7"/>
<text text-anchor="start" x="313" y="-62.8" font-family="Helvetica,sans-Serif" font-size="11.00" fill="#000000">...</text>
<polygon fill="#ffffff" stroke="transparent" points="310,-37.7 310,-56.7 354,-56.7 354,-37.7 310,-37.7"/>
<polygon fill="none" stroke="#000000" points="310,-37.7 310,-56.7 354,-56.7 354,-37.7 310,-37.7"/>
<text text-anchor="start" x="313" y="-43.8" font-family="Helvetica,sans-Serif" font-size="11.00" fill="#000000">&lt; 4</text>
<polygon fill="#ffffff" stroke="transparent" points="354,-37.7 354,-56.7 378,-56.7 378,-37.7 354,-37.7"/>
<polygon fill="none" stroke="#000000" points="354,-37.7 354,-56.7 378,-56.7 378,-37.7 354,-37.7"/>
<text text-anchor="start" x="368.8862" y="-43.8" font-family="Helvetica,sans-Serif" font-size="11.00" fill="#000000"> &#160;</text>
<polygon fill="#ffffff" stroke="transparent" points="378,-37.7 378,-56.7 411,-56.7 411,-37.7 378,-37.7"/>
<polygon fill="none" stroke="#000000" points="378,-37.7 378,-56.7 411,-56.7 411,-37.7 378,-37.7"/>
<text text-anchor="start" x="392.4053" y="-43.8" font-family="Helvetica,sans-Serif" font-size="11.00" fill="#000000">2 &gt;</text>
</a>
</g>
</g>
<!-- users -->
<g id="node2" class="node">
<title>users</title>
<g id="a_node2"><a xlink:href="../../tables/users.html" xlink:title="users" target="_top">
<polygon fill="#ffffff" stroke="transparent" points="8,-165.2 8,-226.2 79,-226.2 79,-165.2 8,-165.2"/>
<polygon fill="#f5f5f5" stroke="transparent" points="8.5,-202.7 8.5,-225.7 79.5,-225.7 79.5,-202.7 8.5,-202.7"/>
<polygon fill="none" stroke="#000000" points="8.5,-202.7 8.5,-225.7 79.5,-225.7 79.5,-202.7 8.5,-202.7"/>
<text text-anchor="start" x="13.5" y="-211.3" font-family="Helvetica,sans-Serif" font-weight="bold" font-size="11.00" fill="#000000">users</text>
<text text-anchor="start" x="45.0219" y="-210.8" font-family="Helvetica,sans-Serif" font-size="11.00" fill="#000000">[table]</text>
<polygon fill="none" stroke="#000000" points="8.5,-183.7 8.5,-202.7 79.5,-202.7 79.5,-183.7 8.5,-183.7"/>
<text text-anchor="start" x="11.5" y="-189.8" font-family="Helvetica,sans-Serif" font-size="11.00" fill="#000000">...</text>
<polygon fill="#ffffff" stroke="transparent" points="8.5,-164.7 8.5,-183.7 34.5,-183.7 34.5,-164.7 8.5,-164.7"/>
<polygon fill="none" stroke="#000000" points="8.5,-164.7 8.5,-183.7 34.5,-183.7 34.5,-164.7 8.5,-164.7"/>
<text text-anchor="start" x="11.5" y="-170.8" font-family="Helvetica,sans-Serif" font-size="11.00" fill="#000000">&lt; 3</text>
<polygon fill="#ffffff" stroke="transparent" points="34.5,-164.7 34.5,-183.7 49.5,-183.7 49.5,-164.7 34.5,-164.7"/>
<polygon fill="none" stroke="#000000" points="34.5,-164.7 34.5,-183.7 49.5,-183.7 49.5,-164.7 34.5,-164.7"/>
<text text-anchor="start" x="40.3862" y="-170.8" font-family="Helvetica,sans-Serif" font-size="11.00" fill="#000000"> &#160;</text>
<polygon fill="#ffffff" stroke="transparent" points="49.5,-164.7 49.5,-183.7 79.5,-183.7 79.5,-164.7 49.5,-164.7"/>
<polygon fill="none" stroke="#000000" points="49.5,-164.7 49.5,-183.7 79.5,-183.7 79.5,-164.7 49.5,-164.7"/>
<text text-anchor="start" x="54.7904" y="-170.8" font-family="Helvetica,sans-Serif" font-size="11.00" fill="#000000">14 &gt;</text>
</a>
</g>
</g>
<!-- teams&#45;&gt;users -->
<g id="edge1" class="edge">
<title>teams:w&#45;&gt;users:e</title>
<path fill="none" stroke="#000000" d="M295.1456,-130.579C221.3304,-129.3974 192.3592,-120.6695 120,-154.7 97.6642,-165.2045 104.1827,-192.7 79.5,-192.7"/>
<polygon fill="#000000" stroke="#000000" points="302.0003,-130.6348 309.9707,-134.2999 306.0001,-130.6674 310,-130.7 310,-130.7 310,-130.7 306.0001,-130.6674 310.0293,-127.1001 302.0003,-130.6348 302.0003,-130.6348"/>
<ellipse fill="none" stroke="#000000" cx="298.8004" cy="-130.6087" rx="3.2" ry="3.2"/>
</g>
<!-- teams&#45;&gt;users -->
<g id="edge2" class="edge">
<title>teams:w&#45;&gt;users:e</title>
<path fill="none" stroke="#000000" d="M295.5825,-86.393C220.8806,-83.226 185.1213,-57.5534 120,-103.7 84.5417,-128.8266 122.9585,-192.7 79.5,-192.7"/>
<polygon fill="#000000" stroke="#000000" points="302.0018,-86.5296 309.9233,-90.2992 306.0009,-86.6148 310,-86.7 310,-86.7 310,-86.7 306.0009,-86.6148 310.0767,-83.1008 302.0018,-86.5296 302.0018,-86.5296"/>
<ellipse fill="none" stroke="#000000" cx="298.8025" cy="-86.4615" rx="3.2" ry="3.2"/>
</g>
<!-- teams&#45;&gt;users -->
<g id="edge3" class="edge">
<title>teams:w&#45;&gt;users:e</title>
<path fill="none" stroke="#000000" d="M295.1405,-108.4264C221.0155,-105.709 187.6235,-84.5449 120,-126.7 90.7942,-144.9063 113.9158,-192.7 79.5,-192.7"/>
<polygon fill="#000000" stroke="#000000" points="302.0014,-108.5526 309.9337,-112.2994 306.0007,-108.6263 310,-108.7 310,-108.7 310,-108.7 306.0007,-108.6263 310.0663,-105.1006 302.0014,-108.5526 302.0014,-108.5526"/>
<ellipse fill="none" stroke="#000000" cx="298.8019" cy="-108.4937" rx="3.2" ry="3.2"/>
</g>
<!-- workspaces -->
<g id="node3" class="node">
<title>workspaces</title>
<g id="a_node3"><a xlink:href="../../tables/workspaces.html" xlink:title="workspaces" target="_top">
<polygon fill="#ffffff" stroke="transparent" points="128,-165.2 128,-226.2 237,-226.2 237,-165.2 128,-165.2"/>
<polygon fill="#f5f5f5" stroke="transparent" points="128.5,-202.7 128.5,-225.7 237.5,-225.7 237.5,-202.7 128.5,-202.7"/>
<polygon fill="none" stroke="#000000" points="128.5,-202.7 128.5,-225.7 237.5,-225.7 237.5,-202.7 128.5,-202.7"/>
<text text-anchor="start" x="133.5" y="-211.3" font-family="Helvetica,sans-Serif" font-weight="bold" font-size="11.00" fill="#000000">workspaces</text>
<text text-anchor="start" x="203.0219" y="-210.8" font-family="Helvetica,sans-Serif" font-size="11.00" fill="#000000">[table]</text>
<polygon fill="none" stroke="#000000" points="128.5,-183.7 128.5,-202.7 237.5,-202.7 237.5,-183.7 128.5,-183.7"/>
<text text-anchor="start" x="131.5" y="-189.8" font-family="Helvetica,sans-Serif" font-size="11.00" fill="#000000">...</text>
<polygon fill="#ffffff" stroke="transparent" points="128.5,-164.7 128.5,-183.7 176.5,-183.7 176.5,-164.7 128.5,-164.7"/>
<polygon fill="none" stroke="#000000" points="128.5,-164.7 128.5,-183.7 176.5,-183.7 176.5,-164.7 128.5,-164.7"/>
<text text-anchor="start" x="131.5" y="-170.8" font-family="Helvetica,sans-Serif" font-size="11.00" fill="#000000">&lt; 5</text>
<polygon fill="#ffffff" stroke="transparent" points="176.5,-164.7 176.5,-183.7 202.5,-183.7 202.5,-164.7 176.5,-164.7"/>
<polygon fill="none" stroke="#000000" points="176.5,-164.7 176.5,-183.7 202.5,-183.7 202.5,-164.7 176.5,-164.7"/>
<text text-anchor="start" x="193.3862" y="-170.8" font-family="Helvetica,sans-Serif" font-size="11.00" fill="#000000"> &#160;</text>
<polygon fill="#ffffff" stroke="transparent" points="202.5,-164.7 202.5,-183.7 237.5,-183.7 237.5,-164.7 202.5,-164.7"/>
<polygon fill="none" stroke="#000000" points="202.5,-164.7 202.5,-183.7 237.5,-183.7 237.5,-164.7 202.5,-164.7"/>
<text text-anchor="start" x="218.9053" y="-170.8" font-family="Helvetica,sans-Serif" font-size="11.00" fill="#000000">7 &gt;</text>
</a>
</g>
</g>
<!-- teams&#45;&gt;workspaces -->
<g id="edge4" class="edge">
<title>teams:w&#45;&gt;workspaces:e</title>
<path fill="none" stroke="#000000" d="M295.5518,-155.2022C272.655,-163.9592 268.6947,-192.7 237.5,-192.7"/>
<polygon fill="#000000" stroke="#000000" points="302.1173,-154.0652 310.6143,-156.2472 306.0587,-153.3826 310,-152.7 310,-152.7 310,-152.7 306.0587,-153.3826 309.3857,-149.1528 302.1173,-154.0652 302.1173,-154.0652"/>
<ellipse fill="none" stroke="#000000" cx="298.9643" cy="-154.6113" rx="3.2" ry="3.2"/>
</g>
<!-- workspaces&#45;&gt;users -->
<g id="edge12" class="edge">
<title>workspaces:w&#45;&gt;users:e</title>
<path fill="none" stroke="#000000" d="M115.4586,-185.7017C103.2729,-180.4141 96.1736,-182.7469 79.5,-192.7"/>
<polygon fill="#000000" stroke="#000000" points="121.4508,-188.9172 126.7978,-195.8721 124.9754,-190.8086 128.5,-192.7 128.5,-192.7 128.5,-192.7 124.9754,-190.8086 130.2022,-189.5279 121.4508,-188.9172 121.4508,-188.9172"/>
<ellipse fill="none" stroke="#000000" cx="118.6311" cy="-187.4041" rx="3.2" ry="3.2"/>
</g>
<!-- workspaces&#45;&gt;users -->
<g id="edge13" class="edge">
<title>workspaces:w&#45;&gt;users:e</title>
<path fill="none" stroke="#000000" d="M113.9909,-192.7C102.6774,-192.7 95.4931,-192.7 79.5,-192.7"/>
<polygon fill="#000000" stroke="#000000" points="120.5,-192.7001 128.5,-196.3 124.5,-192.7 128.5,-192.7 128.5,-192.7 128.5,-192.7 124.5,-192.7 128.5,-189.1 120.5,-192.7001 120.5,-192.7001"/>
<ellipse fill="none" stroke="#000000" cx="117.3" cy="-192.7001" rx="3.2" ry="3.2"/>
</g>
<!-- workspaces&#45;&gt;users -->
<g id="edge14" class="edge">
<title>workspaces:w&#45;&gt;users:e</title>
<path fill="none" stroke="#000000" d="M115.4586,-199.6983C103.2729,-204.9859 96.1736,-202.6531 79.5,-192.7"/>
<polygon fill="#000000" stroke="#000000" points="121.4508,-196.4828 130.2022,-195.8721 124.9754,-194.5914 128.5,-192.7 128.5,-192.7 128.5,-192.7 124.9754,-194.5914 126.7978,-189.5279 121.4508,-196.4828 121.4508,-196.4828"/>
<ellipse fill="none" stroke="#000000" cx="118.6311" cy="-197.9959" rx="3.2" ry="3.2"/>
</g>
<!-- user_workspace_roles -->
<g id="node4" class="node">
<title>user_workspace_roles</title>
<g id="a_node4"><a xlink:href="../../tables/user_workspace_roles.html" xlink:title="user_workspace_roles" target="_top">
<polygon fill="#ffffff" stroke="transparent" points="527,-329.2 527,-390.2 696,-390.2 696,-329.2 527,-329.2"/>
<polygon fill="#f5f5f5" stroke="transparent" points="527.5,-366.7 527.5,-389.7 696.5,-389.7 696.5,-366.7 527.5,-366.7"/>
<polygon fill="none" stroke="#000000" points="527.5,-366.7 527.5,-389.7 696.5,-389.7 696.5,-366.7 527.5,-366.7"/>
<text text-anchor="start" x="532.5" y="-375.3" font-family="Helvetica,sans-Serif" font-weight="bold" font-size="11.00" fill="#000000">user_workspace_roles</text>
<text text-anchor="start" x="662.0219" y="-374.8" font-family="Helvetica,sans-Serif" font-size="11.00" fill="#000000">[table]</text>
<polygon fill="none" stroke="#000000" points="527.5,-347.7 527.5,-366.7 696.5,-366.7 696.5,-347.7 527.5,-347.7"/>
<text text-anchor="start" x="530.5" y="-353.8" font-family="Helvetica,sans-Serif" font-size="11.00" fill="#000000">...</text>
<polygon fill="#ffffff" stroke="transparent" points="527.5,-328.7 527.5,-347.7 610.5,-347.7 610.5,-328.7 527.5,-328.7"/>
<polygon fill="none" stroke="#000000" points="527.5,-328.7 527.5,-347.7 610.5,-347.7 610.5,-328.7 527.5,-328.7"/>
<text text-anchor="start" x="530.5" y="-334.8" font-family="Helvetica,sans-Serif" font-size="11.00" fill="#000000">&lt; 2</text>
<polygon fill="#ffffff" stroke="transparent" points="610.5,-328.7 610.5,-347.7 653.5,-347.7 653.5,-328.7 610.5,-328.7"/>
<polygon fill="none" stroke="#000000" points="610.5,-328.7 610.5,-347.7 653.5,-347.7 653.5,-328.7 610.5,-328.7"/>
<text text-anchor="start" x="644.3862" y="-334.8" font-family="Helvetica,sans-Serif" font-size="11.00" fill="#000000"> &#160;</text>
<polygon fill="#ffffff" stroke="transparent" points="653.5,-328.7 653.5,-347.7 696.5,-347.7 696.5,-328.7 653.5,-328.7"/>
<polygon fill="none" stroke="#000000" points="653.5,-328.7 653.5,-347.7 696.5,-347.7 696.5,-328.7 653.5,-328.7"/>
<text text-anchor="start" x="687.3862" y="-334.8" font-family="Helvetica,sans-Serif" font-size="11.00" fill="#000000"> &#160;</text>
</a>
</g>
</g>
<!-- user_workspaces -->
<g id="node5" class="node">
<title>user_workspaces</title>
<g id="a_node5"><a xlink:href="../../tables/user_workspaces.html" xlink:title="user_workspaces" target="_top">
<polygon fill="#ffffff" stroke="transparent" points="286,-230.2 286,-379.2 434,-379.2 434,-230.2 286,-230.2"/>
<polygon fill="#f5f5f5" stroke="transparent" points="286,-355.7 286,-378.7 434,-378.7 434,-355.7 286,-355.7"/>
<polygon fill="none" stroke="#000000" points="286,-355.7 286,-378.7 434,-378.7 434,-355.7 286,-355.7"/>
<text text-anchor="start" x="291" y="-364.3" font-family="Helvetica,sans-Serif" font-weight="bold" font-size="11.00" fill="#000000">user_workspaces</text>
<text text-anchor="start" x="399.0437" y="-363.8" font-family="Helvetica,sans-Serif" font-size="11.00" fill="#000000">[table]</text>
<polygon fill="none" stroke="#000000" points="286,-333.7 286,-355.7 434,-355.7 434,-333.7 286,-333.7"/>
<image xlink:href="../../images/primaryKeys.png" width="11px" height="12px" preserveAspectRatio="xMinYMin meet" x="291" y="-350.7"/>
<text text-anchor="start" x="306" y="-340.8" font-family="Helvetica,sans-Serif" font-size="11.00" fill="#000000">id</text>
<polygon fill="#ffffff" stroke="transparent" points="286,-311.7 286,-333.7 434,-333.7 434,-311.7 286,-311.7"/>
<polygon fill="none" stroke="#000000" points="286,-311.7 286,-333.7 434,-333.7 434,-311.7 286,-311.7"/>
<image xlink:href="../../images/foreignKeys.png" width="11px" height="12px" preserveAspectRatio="xMinYMin meet" x="291" y="-328.7"/>
<text text-anchor="start" x="306" y="-318.8" font-family="Helvetica,sans-Serif" font-size="11.00" fill="#000000">user_id</text>
<polygon fill="#ffffff" stroke="transparent" points="286,-289.7 286,-311.7 434,-311.7 434,-289.7 286,-289.7"/>
<polygon fill="none" stroke="#000000" points="286,-289.7 286,-311.7 434,-311.7 434,-289.7 286,-289.7"/>
<image xlink:href="../../images/foreignKeys.png" width="11px" height="12px" preserveAspectRatio="xMinYMin meet" x="291" y="-306.7"/>
<text text-anchor="start" x="306" y="-296.8" font-family="Helvetica,sans-Serif" font-size="11.00" fill="#000000">workspace_id</text>
<polygon fill="none" stroke="#000000" points="286,-267.7 286,-289.7 434,-289.7 434,-267.7 286,-267.7"/>
<image xlink:href="../../images/foreignKeys.png" width="11px" height="12px" preserveAspectRatio="xMinYMin meet" x="291" y="-284.7"/>
<text text-anchor="start" x="306" y="-274.8" font-family="Helvetica,sans-Serif" font-size="11.00" fill="#000000">invited_by</text>
<polygon fill="none" stroke="#000000" points="286,-248.7 286,-267.7 434,-267.7 434,-248.7 286,-248.7"/>
<text text-anchor="start" x="289" y="-254.8" font-family="Helvetica,sans-Serif" font-size="11.00" fill="#000000">...</text>
<polygon fill="#ffffff" stroke="transparent" points="286,-229.7 286,-248.7 354,-248.7 354,-229.7 286,-229.7"/>
<polygon fill="none" stroke="#000000" points="286,-229.7 286,-248.7 354,-248.7 354,-229.7 286,-229.7"/>
<text text-anchor="start" x="289" y="-235.8" font-family="Helvetica,sans-Serif" font-size="11.00" fill="#000000">&lt; 3</text>
<polygon fill="#ffffff" stroke="transparent" points="354,-229.7 354,-248.7 389,-248.7 389,-229.7 354,-229.7"/>
<polygon fill="none" stroke="#000000" points="354,-229.7 354,-248.7 389,-248.7 389,-229.7 354,-229.7"/>
<text text-anchor="start" x="379.8862" y="-235.8" font-family="Helvetica,sans-Serif" font-size="11.00" fill="#000000"> &#160;</text>
<polygon fill="#ffffff" stroke="transparent" points="389,-229.7 389,-248.7 434,-248.7 434,-229.7 389,-229.7"/>
<polygon fill="none" stroke="#000000" points="389,-229.7 389,-248.7 434,-248.7 434,-229.7 389,-229.7"/>
<text text-anchor="start" x="415.4053" y="-235.8" font-family="Helvetica,sans-Serif" font-size="11.00" fill="#000000">2 &gt;</text>
</a>
</g>
</g>
<!-- user_workspace_roles&#45;&gt;user_workspaces -->
<g id="edge5" class="edge">
<title>user_workspace_roles:w&#45;&gt;user_workspaces:e</title>
<path fill="none" stroke="#000000" d="M512.7646,-356.1532C482.5661,-353.8057 470.4957,-344.7 434,-344.7"/>
<polygon fill="#000000" stroke="#000000" points="519.5055,-356.4033 527.3665,-360.2975 523.5028,-356.5516 527.5,-356.7 527.5,-356.7 527.5,-356.7 523.5028,-356.5516 527.6335,-353.1025 519.5055,-356.4033 519.5055,-356.4033"/>
<ellipse fill="none" stroke="#000000" cx="516.3077" cy="-356.2846" rx="3.2" ry="3.2"/>
</g>
<!-- user_workspaces&#45;&gt;users -->
<g id="edge8" class="edge">
<title>user_workspaces:w&#45;&gt;users:e</title>
<path fill="none" stroke="#000000" d="M271.4943,-278.65C206.4609,-278.1367 181.0376,-273.0643 120,-236.7 97.1666,-223.0965 106.0786,-192.7 79.5,-192.7"/>
<polygon fill="#000000" stroke="#000000" points="278,-278.6724 285.9876,-282.3 282,-278.6862 286,-278.7 286,-278.7 286,-278.7 282,-278.6862 286.0124,-275.1 278,-278.6724 278,-278.6724"/>
<ellipse fill="none" stroke="#000000" cx="274.8001" cy="-278.6614" rx="3.2" ry="3.2"/>
</g>
<!-- user_workspaces&#45;&gt;users -->
<g id="edge9" class="edge">
<title>user_workspaces:w&#45;&gt;users:e</title>
<path fill="none" stroke="#000000" d="M275.3678,-322.6567C205.3997,-322.0429 176.8712,-314.3784 120,-266.7 91.2687,-242.6129 116.9924,-192.7 79.5,-192.7"/>
<polygon fill="#000000" stroke="#000000" points="285.2163,-318.6968 285.1837,-326.6967 283.5837,-326.6902 283.6164,-318.6902 285.2163,-318.6968"/>
<polyline fill="none" stroke="#000000" points="286,-322.7 282,-322.6837 "/>
<ellipse fill="none" stroke="#000000" cx="278.8001" cy="-322.6706" rx="3.2" ry="3.2"/>
</g>
<!-- user_workspaces&#45;&gt;workspaces -->
<g id="edge10" class="edge">
<title>user_workspaces:w&#45;&gt;workspaces:e</title>
<path fill="none" stroke="#000000" d="M272.0101,-296.8562C244.833,-277.6172 284.1573,-192.7 237.5,-192.7"/>
<polygon fill="#000000" stroke="#000000" points="278.2859,-298.5805 285.0462,-304.1714 282.1429,-299.6402 286,-300.7 286,-300.7 286,-300.7 282.1429,-299.6402 286.9538,-297.2286 278.2859,-298.5805 278.2859,-298.5805"/>
<ellipse fill="none" stroke="#000000" cx="275.2002" cy="-297.7327" rx="3.2" ry="3.2"/>
</g>
<!-- user_workspace_teams -->
<g id="node6" class="node">
<title>user_workspace_teams</title>
<g id="a_node6"><a xlink:href="../../tables/user_workspace_teams.html" xlink:title="user_workspace_teams" target="_top">
<polygon fill="#ffffff" stroke="transparent" points="483,-217.7 483,-307.7 740,-307.7 740,-217.7 483,-217.7"/>
<polygon fill="#f5f5f5" stroke="transparent" points="485.5,-282.7 485.5,-305.7 738.5,-305.7 738.5,-282.7 485.5,-282.7"/>
<polygon fill="none" stroke="#000000" points="485.5,-282.7 485.5,-305.7 738.5,-305.7 738.5,-282.7 485.5,-282.7"/>
<text text-anchor="start" x="490.5" y="-291.3" font-family="Helvetica,sans-Serif" font-weight="bold" font-size="11.00" fill="#000000">user_workspace_teams</text>
<text text-anchor="start" x="703.5437" y="-290.8" font-family="Helvetica,sans-Serif" font-size="11.00" fill="#000000">[table]</text>
<polygon fill="none" stroke="#000000" points="485.5,-260.7 485.5,-282.7 644.5,-282.7 644.5,-260.7 485.5,-260.7"/>
<image xlink:href="../../images/primaryKeys.png" width="11px" height="12px" preserveAspectRatio="xMinYMin meet" x="490.5" y="-277.7"/>
<text text-anchor="start" x="505.5" y="-267.8" font-family="Helvetica,sans-Serif" font-size="11.00" fill="#000000">user_workspace_id</text>
<polygon fill="none" stroke="#000000" points="644.5,-260.7 644.5,-282.7 738.5,-282.7 738.5,-260.7 644.5,-260.7"/>
<text text-anchor="start" x="647.4758" y="-268.4" font-family="Helvetica,sans-Serif" font-size="11.00" fill="#000000">uuid[2147483647]</text>
<polygon fill="none" stroke="#000000" points="485.5,-238.7 485.5,-260.7 644.5,-260.7 644.5,-238.7 485.5,-238.7"/>
<image xlink:href="../../images/primaryKeys.png" width="11px" height="12px" preserveAspectRatio="xMinYMin meet" x="490.5" y="-255.7"/>
<text text-anchor="start" x="505.5" y="-245.8" font-family="Helvetica,sans-Serif" font-size="11.00" fill="#000000">team_id</text>
<polygon fill="none" stroke="#000000" points="644.5,-238.7 644.5,-260.7 738.5,-260.7 738.5,-238.7 644.5,-238.7"/>
<text text-anchor="start" x="647.4758" y="-246.4" font-family="Helvetica,sans-Serif" font-size="11.00" fill="#000000">uuid[2147483647]</text>
<polygon fill="#ffffff" stroke="transparent" points="485.5,-219.7 485.5,-238.7 569.5,-238.7 569.5,-219.7 485.5,-219.7"/>
<polygon fill="none" stroke="#000000" points="485.5,-219.7 485.5,-238.7 569.5,-238.7 569.5,-219.7 485.5,-219.7"/>
<text text-anchor="start" x="488.5" y="-225.8" font-family="Helvetica,sans-Serif" font-size="11.00" fill="#000000">&lt; 2</text>
<polygon fill="#ffffff" stroke="transparent" points="569.5,-219.7 569.5,-238.7 644.5,-238.7 644.5,-219.7 569.5,-219.7"/>
<polygon fill="none" stroke="#000000" points="569.5,-219.7 569.5,-238.7 644.5,-238.7 644.5,-219.7 569.5,-219.7"/>
<text text-anchor="start" x="635.3862" y="-225.8" font-family="Helvetica,sans-Serif" font-size="11.00" fill="#000000"> &#160;</text>
<polygon fill="#ffffff" stroke="transparent" points="644.5,-219.7 644.5,-238.7 738.5,-238.7 738.5,-219.7 644.5,-219.7"/>
<polygon fill="none" stroke="#000000" points="644.5,-219.7 644.5,-238.7 738.5,-238.7 738.5,-219.7 644.5,-219.7"/>
<text text-anchor="start" x="719.9053" y="-225.8" font-family="Helvetica,sans-Serif" font-size="11.00" fill="#000000">0 &gt;</text>
<polygon fill="none" stroke="#000000" stroke-width="2" points="484,-218.7 484,-306.7 739,-306.7 739,-218.7 484,-218.7"/>
</a>
</g>
</g>
<!-- user_workspace_teams&#45;&gt;teams -->
<g id="edge6" class="edge">
<title>user_workspace_teams:w&#45;&gt;teams:e</title>
<path fill="none" stroke="#000000" d="M471.119,-246.667C442.2567,-232.6357 452.2942,-174.7 411,-174.7"/>
<polygon fill="#000000" stroke="#000000" points="477.6722,-248.0491 484.7571,-253.2225 481.5861,-248.8745 485.5,-249.7 485.5,-249.7 485.5,-249.7 481.5861,-248.8745 486.2429,-246.1775 477.6722,-248.0491 477.6722,-248.0491"/>
<ellipse fill="none" stroke="#000000" cx="474.5411" cy="-247.3887" rx="3.2" ry="3.2"/>
</g>
<!-- user_workspace_teams&#45;&gt;user_workspaces -->
<g id="edge7" class="edge">
<title>user_workspace_teams:w&#45;&gt;user_workspaces:e</title>
<path fill="none" stroke="#000000" d="M471.583,-276.2665C452.7293,-292.248 467.6568,-344.7 434,-344.7"/>
<polygon fill="#000000" stroke="#000000" points="477.8987,-274.1942 486.6224,-275.1206 481.6994,-272.9471 485.5,-271.7 485.5,-271.7 485.5,-271.7 481.6994,-272.9471 484.3776,-268.2794 477.8987,-274.1942 477.8987,-274.1942"/>
<ellipse fill="none" stroke="#000000" cx="474.8582" cy="-275.1919" rx="3.2" ry="3.2"/>
</g>
<!-- workspace_invitation_teams -->
<g id="node7" class="node">
<title>workspace_invitation_teams</title>
<g id="a_node7"><a xlink:href="../../tables/workspace_invitation_teams.html" xlink:title="workspace_invitation_teams" target="_top">
<polygon fill="#ffffff" stroke="transparent" points="507,-135.2 507,-196.2 716,-196.2 716,-135.2 507,-135.2"/>
<polygon fill="#f5f5f5" stroke="transparent" points="507.5,-172.7 507.5,-195.7 716.5,-195.7 716.5,-172.7 507.5,-172.7"/>
<polygon fill="none" stroke="#000000" points="507.5,-172.7 507.5,-195.7 716.5,-195.7 716.5,-172.7 507.5,-172.7"/>
<text text-anchor="start" x="512.5" y="-181.3" font-family="Helvetica,sans-Serif" font-weight="bold" font-size="11.00" fill="#000000">workspace_invitation_teams</text>
<text text-anchor="start" x="682.0219" y="-180.8" font-family="Helvetica,sans-Serif" font-size="11.00" fill="#000000">[table]</text>
<polygon fill="none" stroke="#000000" points="507.5,-153.7 507.5,-172.7 716.5,-172.7 716.5,-153.7 507.5,-153.7"/>
<text text-anchor="start" x="510.5" y="-159.8" font-family="Helvetica,sans-Serif" font-size="11.00" fill="#000000">...</text>
<polygon fill="#ffffff" stroke="transparent" points="507.5,-134.7 507.5,-153.7 610.5,-153.7 610.5,-134.7 507.5,-134.7"/>
<polygon fill="none" stroke="#000000" points="507.5,-134.7 507.5,-153.7 610.5,-153.7 610.5,-134.7 507.5,-134.7"/>
<text text-anchor="start" x="510.5" y="-140.8" font-family="Helvetica,sans-Serif" font-size="11.00" fill="#000000">&lt; 2</text>
<polygon fill="#ffffff" stroke="transparent" points="610.5,-134.7 610.5,-153.7 663.5,-153.7 663.5,-134.7 610.5,-134.7"/>
<polygon fill="none" stroke="#000000" points="610.5,-134.7 610.5,-153.7 663.5,-153.7 663.5,-134.7 610.5,-134.7"/>
<text text-anchor="start" x="654.3862" y="-140.8" font-family="Helvetica,sans-Serif" font-size="11.00" fill="#000000"> &#160;</text>
<polygon fill="#ffffff" stroke="transparent" points="663.5,-134.7 663.5,-153.7 716.5,-153.7 716.5,-134.7 663.5,-134.7"/>
<polygon fill="none" stroke="#000000" points="663.5,-134.7 663.5,-153.7 716.5,-153.7 716.5,-134.7 663.5,-134.7"/>
<text text-anchor="start" x="707.3862" y="-140.8" font-family="Helvetica,sans-Serif" font-size="11.00" fill="#000000"> &#160;</text>
</a>
</g>
</g>
<!-- workspace_invitation_teams&#45;&gt;teams -->
<g id="edge11" class="edge">
<title>workspace_invitation_teams:w&#45;&gt;teams:e</title>
<path fill="none" stroke="#000000" d="M492.7175,-163.2156C461.2473,-165.5125 448.8168,-174.7 411,-174.7"/>
<polygon fill="#000000" stroke="#000000" points="499.5049,-162.9789 507.6255,-166.2978 503.5024,-162.8395 507.5,-162.7 507.5,-162.7 507.5,-162.7 503.5024,-162.8395 507.3745,-159.1022 499.5049,-162.9789 499.5049,-162.9789"/>
<ellipse fill="none" stroke="#000000" cx="496.3068" cy="-163.0905" rx="3.2" ry="3.2"/>
</g>
</g>
</svg>
