<?xml version="1.0" encoding="UTF-8" standalone="no"?>
<!DOCTYPE svg PUBLIC "-//W3C//DTD SVG 1.1//EN"
 "http://www.w3.org/Graphics/SVG/1.1/DTD/svg11.dtd">
<!-- Generated by graphviz version 2.40.1 (20161225.0304)
 -->
<!-- Title: twoDegreesRelationshipsDiagram Pages: 1 -->
<svg width="907pt" height="470pt"
 viewBox="0.00 0.00 907.00 470.20" xmlns="http://www.w3.org/2000/svg" xmlns:xlink="http://www.w3.org/1999/xlink">
<g id="graph0" class="graph" transform="scale(1 1) rotate(0) translate(4 466.2)">
<title>twoDegreesRelationshipsDiagram</title>
<polygon fill="#ffffff" stroke="transparent" points="-4,4 -4,-466.2 903,-466.2 903,4 -4,4"/>
<text text-anchor="middle" x="72.4936" y="-7.3" font-family="Helvetica,sans-Serif" font-size="11.00" fill="#000000">Generated by SchemaSpy</text>
<!-- workspace_customers -->
<g id="node1" class="node">
<title>workspace_customers</title>
<g id="a_node1"><a xlink:href="../../tables/workspace_customers.html" xlink:title="workspace_customers" target="_top">
<polygon fill="#ffffff" stroke="transparent" points="166,-310.7 166,-371.7 337,-371.7 337,-310.7 166,-310.7"/>
<polygon fill="#f5f5f5" stroke="transparent" points="166.5,-348.2 166.5,-371.2 337.5,-371.2 337.5,-348.2 166.5,-348.2"/>
<polygon fill="none" stroke="#000000" points="166.5,-348.2 166.5,-371.2 337.5,-371.2 337.5,-348.2 166.5,-348.2"/>
<text text-anchor="start" x="171.5" y="-356.8" font-family="Helvetica,sans-Serif" font-weight="bold" font-size="11.00" fill="#000000">workspace_customers</text>
<text text-anchor="start" x="303.0219" y="-356.3" font-family="Helvetica,sans-Serif" font-size="11.00" fill="#000000">[table]</text>
<polygon fill="none" stroke="#000000" points="166.5,-329.2 166.5,-348.2 337.5,-348.2 337.5,-329.2 166.5,-329.2"/>
<text text-anchor="start" x="169.5" y="-335.3" font-family="Helvetica,sans-Serif" font-size="11.00" fill="#000000">...</text>
<polygon fill="#ffffff" stroke="transparent" points="166.5,-310.2 166.5,-329.2 245.5,-329.2 245.5,-310.2 166.5,-310.2"/>
<polygon fill="none" stroke="#000000" points="166.5,-310.2 166.5,-329.2 245.5,-329.2 245.5,-310.2 166.5,-310.2"/>
<text text-anchor="start" x="169.5" y="-316.3" font-family="Helvetica,sans-Serif" font-size="11.00" fill="#000000">&lt; 2</text>
<polygon fill="#ffffff" stroke="transparent" points="245.5,-310.2 245.5,-329.2 286.5,-329.2 286.5,-310.2 245.5,-310.2"/>
<polygon fill="none" stroke="#000000" points="245.5,-310.2 245.5,-329.2 286.5,-329.2 286.5,-310.2 245.5,-310.2"/>
<text text-anchor="start" x="277.3862" y="-316.3" font-family="Helvetica,sans-Serif" font-size="11.00" fill="#000000"> &#160;</text>
<polygon fill="#ffffff" stroke="transparent" points="286.5,-310.2 286.5,-329.2 337.5,-329.2 337.5,-310.2 286.5,-310.2"/>
<polygon fill="none" stroke="#000000" points="286.5,-310.2 286.5,-329.2 337.5,-329.2 337.5,-310.2 286.5,-310.2"/>
<text text-anchor="start" x="318.9053" y="-316.3" font-family="Helvetica,sans-Serif" font-size="11.00" fill="#000000">1 &gt;</text>
</a>
</g>
</g>
<!-- workspaces -->
<g id="node2" class="node">
<title>workspaces</title>
<g id="a_node2"><a xlink:href="../../tables/workspaces.html" xlink:title="workspaces" target="_top">
<polygon fill="#ffffff" stroke="transparent" points="8,-310.7 8,-371.7 117,-371.7 117,-310.7 8,-310.7"/>
<polygon fill="#f5f5f5" stroke="transparent" points="8.5,-348.2 8.5,-371.2 117.5,-371.2 117.5,-348.2 8.5,-348.2"/>
<polygon fill="none" stroke="#000000" points="8.5,-348.2 8.5,-371.2 117.5,-371.2 117.5,-348.2 8.5,-348.2"/>
<text text-anchor="start" x="13.5" y="-356.8" font-family="Helvetica,sans-Serif" font-weight="bold" font-size="11.00" fill="#000000">workspaces</text>
<text text-anchor="start" x="83.0219" y="-356.3" font-family="Helvetica,sans-Serif" font-size="11.00" fill="#000000">[table]</text>
<polygon fill="none" stroke="#000000" points="8.5,-329.2 8.5,-348.2 117.5,-348.2 117.5,-329.2 8.5,-329.2"/>
<text text-anchor="start" x="11.5" y="-335.3" font-family="Helvetica,sans-Serif" font-size="11.00" fill="#000000">...</text>
<polygon fill="#ffffff" stroke="transparent" points="8.5,-310.2 8.5,-329.2 56.5,-329.2 56.5,-310.2 8.5,-310.2"/>
<polygon fill="none" stroke="#000000" points="8.5,-310.2 8.5,-329.2 56.5,-329.2 56.5,-310.2 8.5,-310.2"/>
<text text-anchor="start" x="11.5" y="-316.3" font-family="Helvetica,sans-Serif" font-size="11.00" fill="#000000">&lt; 5</text>
<polygon fill="#ffffff" stroke="transparent" points="56.5,-310.2 56.5,-329.2 82.5,-329.2 82.5,-310.2 56.5,-310.2"/>
<polygon fill="none" stroke="#000000" points="56.5,-310.2 56.5,-329.2 82.5,-329.2 82.5,-310.2 56.5,-310.2"/>
<text text-anchor="start" x="73.3862" y="-316.3" font-family="Helvetica,sans-Serif" font-size="11.00" fill="#000000"> &#160;</text>
<polygon fill="#ffffff" stroke="transparent" points="82.5,-310.2 82.5,-329.2 117.5,-329.2 117.5,-310.2 82.5,-310.2"/>
<polygon fill="none" stroke="#000000" points="82.5,-310.2 82.5,-329.2 117.5,-329.2 117.5,-310.2 82.5,-310.2"/>
<text text-anchor="start" x="98.9053" y="-316.3" font-family="Helvetica,sans-Serif" font-size="11.00" fill="#000000">7 &gt;</text>
</a>
</g>
</g>
<!-- workspace_customers&#45;&gt;workspaces -->
<g id="edge1" class="edge">
<title>workspace_customers:w&#45;&gt;workspaces:e</title>
<path fill="none" stroke="#000000" d="M152.3534,-334.7558C140.8293,-332.5988 133.6632,-333.7469 117.5,-338.2"/>
<polygon fill="#000000" stroke="#000000" points="158.7271,-336.3075 165.6484,-341.6978 162.6135,-337.2538 166.5,-338.2 166.5,-338.2 166.5,-338.2 162.6135,-337.2538 167.3516,-334.7022 158.7271,-336.3075 158.7271,-336.3075"/>
<ellipse fill="none" stroke="#000000" cx="155.6179" cy="-335.5505" rx="3.2" ry="3.2"/>
</g>
<!-- workspace_customers&#45;&gt;workspaces -->
<g id="edge2" class="edge">
<title>workspace_customers:w&#45;&gt;workspaces:e</title>
<path fill="none" stroke="#000000" d="M152.3534,-342.2182C140.8293,-344.7347 133.6632,-343.3953 117.5,-338.2"/>
<polygon fill="#000000" stroke="#000000" points="158.8044,-340.3859 167.4837,-341.663 162.6522,-339.293 166.5,-338.2 166.5,-338.2 166.5,-338.2 162.6522,-339.293 165.5163,-334.737 158.8044,-340.3859 158.8044,-340.3859"/>
<ellipse fill="none" stroke="#000000" cx="155.7262" cy="-341.2603" rx="3.2" ry="3.2"/>
</g>
<!-- workspace_invoice_line_items -->
<g id="node3" class="node">
<title>workspace_invoice_line_items</title>
<g id="a_node3"><a xlink:href="../../tables/workspace_invoice_line_items.html" xlink:title="workspace_invoice_line_items" target="_top">
<polygon fill="#ffffff" stroke="transparent" points="594,-38.2 594,-458.2 891,-458.2 891,-38.2 594,-38.2"/>
<polygon fill="#f5f5f5" stroke="transparent" points="596.5,-433.2 596.5,-456.2 889.5,-456.2 889.5,-433.2 596.5,-433.2"/>
<polygon fill="none" stroke="#000000" points="596.5,-433.2 596.5,-456.2 889.5,-456.2 889.5,-433.2 596.5,-433.2"/>
<text text-anchor="start" x="601.5" y="-441.8" font-family="Helvetica,sans-Serif" font-weight="bold" font-size="11.00" fill="#000000">workspace_invoice_line_items</text>
<text text-anchor="start" x="854.5437" y="-441.3" font-family="Helvetica,sans-Serif" font-size="11.00" fill="#000000">[table]</text>
<polygon fill="none" stroke="#000000" points="596.5,-411.2 596.5,-433.2 795.5,-433.2 795.5,-411.2 596.5,-411.2"/>
<image xlink:href="../../images/primaryKeys.png" width="11px" height="12px" preserveAspectRatio="xMinYMin meet" x="601.5" y="-428.2"/>
<text text-anchor="start" x="616.5" y="-418.3" font-family="Helvetica,sans-Serif" font-size="11.00" fill="#000000">id</text>
<polygon fill="none" stroke="#000000" points="795.5,-411.2 795.5,-433.2 889.5,-433.2 889.5,-411.2 795.5,-411.2"/>
<text text-anchor="start" x="798.4758" y="-418.9" font-family="Helvetica,sans-Serif" font-size="11.00" fill="#000000">uuid[2147483647]</text>
<polygon fill="#ffffff" stroke="transparent" points="596.5,-389.2 596.5,-411.2 795.5,-411.2 795.5,-389.2 596.5,-389.2"/>
<polygon fill="none" stroke="#000000" points="596.5,-389.2 596.5,-411.2 795.5,-411.2 795.5,-389.2 596.5,-389.2"/>
<image xlink:href="../../images/foreignKeys.png" width="11px" height="12px" preserveAspectRatio="xMinYMin meet" x="601.5" y="-406.2"/>
<text text-anchor="start" x="616.5" y="-396.3" font-family="Helvetica,sans-Serif" font-size="11.00" fill="#000000">invoice_id</text>
<polygon fill="none" stroke="#000000" points="795.5,-389.2 795.5,-411.2 889.5,-411.2 889.5,-389.2 795.5,-389.2"/>
<text text-anchor="start" x="798.4758" y="-396.9" font-family="Helvetica,sans-Serif" font-size="11.00" fill="#000000">uuid[2147483647]</text>
<polygon fill="#ffffff" stroke="transparent" points="596.5,-367.2 596.5,-389.2 795.5,-389.2 795.5,-367.2 596.5,-367.2"/>
<polygon fill="none" stroke="#000000" points="596.5,-367.2 596.5,-389.2 795.5,-389.2 795.5,-367.2 596.5,-367.2"/>
<text text-anchor="start" x="616.5" y="-374.3" font-family="Helvetica,sans-Serif" font-size="11.00" fill="#000000">sort_order</text>
<polygon fill="none" stroke="#000000" points="795.5,-367.2 795.5,-389.2 889.5,-389.2 889.5,-367.2 795.5,-367.2"/>
<text text-anchor="start" x="798.5" y="-374.9" font-family="Helvetica,sans-Serif" font-size="11.00" fill="#000000">int4[10]</text>
<polygon fill="none" stroke="#000000" points="596.5,-345.2 596.5,-367.2 795.5,-367.2 795.5,-345.2 596.5,-345.2"/>
<text text-anchor="start" x="616.5" y="-352.3" font-family="Helvetica,sans-Serif" font-size="11.00" fill="#000000">description</text>
<polygon fill="none" stroke="#000000" points="795.5,-345.2 795.5,-367.2 889.5,-367.2 889.5,-345.2 795.5,-345.2"/>
<text text-anchor="start" x="798.5" y="-352.9" font-family="Helvetica,sans-Serif" font-size="11.00" fill="#000000">text[2147483647]</text>
<polygon fill="none" stroke="#000000" points="596.5,-323.2 596.5,-345.2 795.5,-345.2 795.5,-323.2 596.5,-323.2"/>
<text text-anchor="start" x="616.5" y="-330.3" font-family="Helvetica,sans-Serif" font-size="11.00" fill="#000000">quantity</text>
<polygon fill="none" stroke="#000000" points="795.5,-323.2 795.5,-345.2 889.5,-345.2 889.5,-323.2 795.5,-323.2"/>
<text text-anchor="start" x="798.5" y="-330.9" font-family="Helvetica,sans-Serif" font-size="11.00" fill="#000000">numeric[18,4]</text>
<polygon fill="none" stroke="#000000" points="596.5,-301.2 596.5,-323.2 795.5,-323.2 795.5,-301.2 596.5,-301.2"/>
<text text-anchor="start" x="616.5" y="-308.3" font-family="Helvetica,sans-Serif" font-size="11.00" fill="#000000">unit_price</text>
<polygon fill="none" stroke="#000000" points="795.5,-301.2 795.5,-323.2 889.5,-323.2 889.5,-301.2 795.5,-301.2"/>
<text text-anchor="start" x="798.5" y="-308.9" font-family="Helvetica,sans-Serif" font-size="11.00" fill="#000000">numeric[18,2]</text>
<polygon fill="none" stroke="#000000" points="596.5,-279.2 596.5,-301.2 795.5,-301.2 795.5,-279.2 596.5,-279.2"/>
<text text-anchor="start" x="616.5" y="-286.3" font-family="Helvetica,sans-Serif" font-size="11.00" fill="#000000">line_subtotal</text>
<polygon fill="none" stroke="#000000" points="795.5,-279.2 795.5,-301.2 889.5,-301.2 889.5,-279.2 795.5,-279.2"/>
<text text-anchor="start" x="798.5" y="-286.9" font-family="Helvetica,sans-Serif" font-size="11.00" fill="#000000">numeric[18,2]</text>
<polygon fill="none" stroke="#000000" points="596.5,-257.2 596.5,-279.2 795.5,-279.2 795.5,-257.2 596.5,-257.2"/>
<text text-anchor="start" x="616.5" y="-264.3" font-family="Helvetica,sans-Serif" font-size="11.00" fill="#000000">tax_rate</text>
<polygon fill="none" stroke="#000000" points="795.5,-257.2 795.5,-279.2 889.5,-279.2 889.5,-257.2 795.5,-257.2"/>
<text text-anchor="start" x="798.5" y="-264.9" font-family="Helvetica,sans-Serif" font-size="11.00" fill="#000000">numeric[5,2]</text>
<polygon fill="none" stroke="#000000" points="596.5,-235.2 596.5,-257.2 795.5,-257.2 795.5,-235.2 596.5,-235.2"/>
<text text-anchor="start" x="616.5" y="-242.3" font-family="Helvetica,sans-Serif" font-size="11.00" fill="#000000">tax_amount</text>
<polygon fill="none" stroke="#000000" points="795.5,-235.2 795.5,-257.2 889.5,-257.2 889.5,-235.2 795.5,-235.2"/>
<text text-anchor="start" x="798.5" y="-242.9" font-family="Helvetica,sans-Serif" font-size="11.00" fill="#000000">numeric[18,2]</text>
<polygon fill="none" stroke="#000000" points="596.5,-213.2 596.5,-235.2 795.5,-235.2 795.5,-213.2 596.5,-213.2"/>
<text text-anchor="start" x="616.5" y="-220.3" font-family="Helvetica,sans-Serif" font-size="11.00" fill="#000000">discount_amount</text>
<polygon fill="none" stroke="#000000" points="795.5,-213.2 795.5,-235.2 889.5,-235.2 889.5,-213.2 795.5,-213.2"/>
<text text-anchor="start" x="798.5" y="-220.9" font-family="Helvetica,sans-Serif" font-size="11.00" fill="#000000">numeric[18,2]</text>
<polygon fill="none" stroke="#000000" points="596.5,-191.2 596.5,-213.2 795.5,-213.2 795.5,-191.2 596.5,-191.2"/>
<text text-anchor="start" x="616.5" y="-198.3" font-family="Helvetica,sans-Serif" font-size="11.00" fill="#000000">line_total</text>
<polygon fill="none" stroke="#000000" points="795.5,-191.2 795.5,-213.2 889.5,-213.2 889.5,-191.2 795.5,-191.2"/>
<text text-anchor="start" x="798.5" y="-198.9" font-family="Helvetica,sans-Serif" font-size="11.00" fill="#000000">numeric[18,2]</text>
<polygon fill="none" stroke="#000000" points="596.5,-169.2 596.5,-191.2 795.5,-191.2 795.5,-169.2 596.5,-169.2"/>
<text text-anchor="start" x="616.5" y="-176.3" font-family="Helvetica,sans-Serif" font-size="11.00" fill="#000000">hsn_sac_code</text>
<polygon fill="none" stroke="#000000" points="795.5,-169.2 795.5,-191.2 889.5,-191.2 889.5,-169.2 795.5,-169.2"/>
<text text-anchor="start" x="798.5" y="-176.9" font-family="Helvetica,sans-Serif" font-size="11.00" fill="#000000">varchar[20]</text>
<polygon fill="none" stroke="#000000" points="596.5,-147.2 596.5,-169.2 795.5,-169.2 795.5,-147.2 596.5,-147.2"/>
<text text-anchor="start" x="616.5" y="-154.3" font-family="Helvetica,sans-Serif" font-size="11.00" fill="#000000">created_by</text>
<polygon fill="none" stroke="#000000" points="795.5,-147.2 795.5,-169.2 889.5,-169.2 889.5,-147.2 795.5,-147.2"/>
<text text-anchor="start" x="798.4758" y="-154.9" font-family="Helvetica,sans-Serif" font-size="11.00" fill="#000000">uuid[2147483647]</text>
<polygon fill="none" stroke="#000000" points="596.5,-125.2 596.5,-147.2 795.5,-147.2 795.5,-125.2 596.5,-125.2"/>
<text text-anchor="start" x="616.5" y="-132.3" font-family="Helvetica,sans-Serif" font-size="11.00" fill="#000000">created_at</text>
<polygon fill="none" stroke="#000000" points="795.5,-125.2 795.5,-147.2 889.5,-147.2 889.5,-125.2 795.5,-125.2"/>
<text text-anchor="start" x="798.5" y="-132.9" font-family="Helvetica,sans-Serif" font-size="11.00" fill="#000000">timestamptz[35,6]</text>
<polygon fill="none" stroke="#000000" points="596.5,-103.2 596.5,-125.2 795.5,-125.2 795.5,-103.2 596.5,-103.2"/>
<text text-anchor="start" x="616.5" y="-110.3" font-family="Helvetica,sans-Serif" font-size="11.00" fill="#000000">updated_by</text>
<polygon fill="none" stroke="#000000" points="795.5,-103.2 795.5,-125.2 889.5,-125.2 889.5,-103.2 795.5,-103.2"/>
<text text-anchor="start" x="798.4758" y="-110.9" font-family="Helvetica,sans-Serif" font-size="11.00" fill="#000000">uuid[2147483647]</text>
<polygon fill="none" stroke="#000000" points="596.5,-81.2 596.5,-103.2 795.5,-103.2 795.5,-81.2 596.5,-81.2"/>
<text text-anchor="start" x="616.5" y="-88.3" font-family="Helvetica,sans-Serif" font-size="11.00" fill="#000000">updated_at</text>
<polygon fill="none" stroke="#000000" points="795.5,-81.2 795.5,-103.2 889.5,-103.2 889.5,-81.2 795.5,-81.2"/>
<text text-anchor="start" x="798.5" y="-88.9" font-family="Helvetica,sans-Serif" font-size="11.00" fill="#000000">timestamptz[35,6]</text>
<polygon fill="none" stroke="#000000" points="596.5,-59.2 596.5,-81.2 795.5,-81.2 795.5,-59.2 596.5,-59.2"/>
<text text-anchor="start" x="616.5" y="-66.3" font-family="Helvetica,sans-Serif" font-size="11.00" fill="#000000">is_deleted</text>
<polygon fill="none" stroke="#000000" points="795.5,-59.2 795.5,-81.2 889.5,-81.2 889.5,-59.2 795.5,-59.2"/>
<text text-anchor="start" x="798.5" y="-66.9" font-family="Helvetica,sans-Serif" font-size="11.00" fill="#000000">bool[1]</text>
<polygon fill="#ffffff" stroke="transparent" points="596.5,-40.2 596.5,-59.2 700.5,-59.2 700.5,-40.2 596.5,-40.2"/>
<polygon fill="none" stroke="#000000" points="596.5,-40.2 596.5,-59.2 700.5,-59.2 700.5,-40.2 596.5,-40.2"/>
<text text-anchor="start" x="599.5" y="-46.3" font-family="Helvetica,sans-Serif" font-size="11.00" fill="#000000">&lt; 1</text>
<polygon fill="#ffffff" stroke="transparent" points="700.5,-40.2 700.5,-59.2 795.5,-59.2 795.5,-40.2 700.5,-40.2"/>
<polygon fill="none" stroke="#000000" points="700.5,-40.2 700.5,-59.2 795.5,-59.2 795.5,-40.2 700.5,-40.2"/>
<text text-anchor="start" x="786.3862" y="-46.3" font-family="Helvetica,sans-Serif" font-size="11.00" fill="#000000"> &#160;</text>
<polygon fill="#ffffff" stroke="transparent" points="795.5,-40.2 795.5,-59.2 889.5,-59.2 889.5,-40.2 795.5,-40.2"/>
<polygon fill="none" stroke="#000000" points="795.5,-40.2 795.5,-59.2 889.5,-59.2 889.5,-40.2 795.5,-40.2"/>
<text text-anchor="start" x="870.9053" y="-46.3" font-family="Helvetica,sans-Serif" font-size="11.00" fill="#000000">0 &gt;</text>
<polygon fill="none" stroke="#000000" stroke-width="2" points="595,-39.2 595,-457.2 890,-457.2 890,-39.2 595,-39.2"/>
</a>
</g>
</g>
<!-- workspace_invoices -->
<g id="node4" class="node">
<title>workspace_invoices</title>
<g id="a_node4"><a xlink:href="../../tables/workspace_invoices.html" xlink:title="workspace_invoices" target="_top">
<polygon fill="#ffffff" stroke="transparent" points="386,-219.7 386,-434.7 545,-434.7 545,-219.7 386,-219.7"/>
<polygon fill="#f5f5f5" stroke="transparent" points="386.5,-411.2 386.5,-434.2 545.5,-434.2 545.5,-411.2 386.5,-411.2"/>
<polygon fill="none" stroke="#000000" points="386.5,-411.2 386.5,-434.2 545.5,-434.2 545.5,-411.2 386.5,-411.2"/>
<text text-anchor="start" x="391.5" y="-419.8" font-family="Helvetica,sans-Serif" font-weight="bold" font-size="11.00" fill="#000000">workspace_invoices</text>
<text text-anchor="start" x="510.5437" y="-419.3" font-family="Helvetica,sans-Serif" font-size="11.00" fill="#000000">[table]</text>
<polygon fill="none" stroke="#000000" points="386.5,-389.2 386.5,-411.2 545.5,-411.2 545.5,-389.2 386.5,-389.2"/>
<image xlink:href="../../images/primaryKeys.png" width="11px" height="12px" preserveAspectRatio="xMinYMin meet" x="391.5" y="-406.2"/>
<text text-anchor="start" x="406.5" y="-396.3" font-family="Helvetica,sans-Serif" font-size="11.00" fill="#000000">id</text>
<polygon fill="#ffffff" stroke="transparent" points="386.5,-367.2 386.5,-389.2 545.5,-389.2 545.5,-367.2 386.5,-367.2"/>
<polygon fill="none" stroke="#000000" points="386.5,-367.2 386.5,-389.2 545.5,-389.2 545.5,-367.2 386.5,-367.2"/>
<image xlink:href="../../images/foreignKeys.png" width="11px" height="12px" preserveAspectRatio="xMinYMin meet" x="391.5" y="-384.2"/>
<text text-anchor="start" x="406.5" y="-374.3" font-family="Helvetica,sans-Serif" font-size="11.00" fill="#000000">workspace_id</text>
<polygon fill="#ffffff" stroke="transparent" points="386.5,-345.2 386.5,-367.2 545.5,-367.2 545.5,-345.2 386.5,-345.2"/>
<polygon fill="none" stroke="#000000" points="386.5,-345.2 386.5,-367.2 545.5,-367.2 545.5,-345.2 386.5,-345.2"/>
<image xlink:href="../../images/foreignKeys.png" width="11px" height="12px" preserveAspectRatio="xMinYMin meet" x="391.5" y="-362.2"/>
<text text-anchor="start" x="406.5" y="-352.3" font-family="Helvetica,sans-Serif" font-size="11.00" fill="#000000">customer_id</text>
<polygon fill="#ffffff" stroke="transparent" points="386.5,-323.2 386.5,-345.2 545.5,-345.2 545.5,-323.2 386.5,-323.2"/>
<polygon fill="none" stroke="#000000" points="386.5,-323.2 386.5,-345.2 545.5,-345.2 545.5,-323.2 386.5,-323.2"/>
<text text-anchor="start" x="406.5" y="-330.3" font-family="Helvetica,sans-Serif" font-size="11.00" fill="#000000">invoice_number</text>
<polygon fill="#ffffff" stroke="transparent" points="386.5,-301.2 386.5,-323.2 545.5,-323.2 545.5,-301.2 386.5,-301.2"/>
<polygon fill="none" stroke="#000000" points="386.5,-301.2 386.5,-323.2 545.5,-323.2 545.5,-301.2 386.5,-301.2"/>
<text text-anchor="start" x="406.5" y="-308.3" font-family="Helvetica,sans-Serif" font-size="11.00" fill="#000000">status</text>
<polygon fill="#ffffff" stroke="transparent" points="386.5,-279.2 386.5,-301.2 545.5,-301.2 545.5,-279.2 386.5,-279.2"/>
<polygon fill="none" stroke="#000000" points="386.5,-279.2 386.5,-301.2 545.5,-301.2 545.5,-279.2 386.5,-279.2"/>
<text text-anchor="start" x="406.5" y="-286.3" font-family="Helvetica,sans-Serif" font-size="11.00" fill="#000000">issue_date</text>
<polygon fill="#ffffff" stroke="transparent" points="386.5,-257.2 386.5,-279.2 545.5,-279.2 545.5,-257.2 386.5,-257.2"/>
<polygon fill="none" stroke="#000000" points="386.5,-257.2 386.5,-279.2 545.5,-279.2 545.5,-257.2 386.5,-257.2"/>
<text text-anchor="start" x="406.5" y="-264.3" font-family="Helvetica,sans-Serif" font-size="11.00" fill="#000000">due_date</text>
<polygon fill="none" stroke="#000000" points="386.5,-238.2 386.5,-257.2 545.5,-257.2 545.5,-238.2 386.5,-238.2"/>
<text text-anchor="start" x="389.5" y="-244.3" font-family="Helvetica,sans-Serif" font-size="11.00" fill="#000000">...</text>
<polygon fill="#ffffff" stroke="transparent" points="386.5,-219.2 386.5,-238.2 459.5,-238.2 459.5,-219.2 386.5,-219.2"/>
<polygon fill="none" stroke="#000000" points="386.5,-219.2 386.5,-238.2 459.5,-238.2 459.5,-219.2 386.5,-219.2"/>
<text text-anchor="start" x="389.5" y="-225.3" font-family="Helvetica,sans-Serif" font-size="11.00" fill="#000000">&lt; 2</text>
<polygon fill="#ffffff" stroke="transparent" points="459.5,-219.2 459.5,-238.2 497.5,-238.2 497.5,-219.2 459.5,-219.2"/>
<polygon fill="none" stroke="#000000" points="459.5,-219.2 459.5,-238.2 497.5,-238.2 497.5,-219.2 459.5,-219.2"/>
<text text-anchor="start" x="488.3862" y="-225.3" font-family="Helvetica,sans-Serif" font-size="11.00" fill="#000000"> &#160;</text>
<polygon fill="#ffffff" stroke="transparent" points="497.5,-219.2 497.5,-238.2 545.5,-238.2 545.5,-219.2 497.5,-219.2"/>
<polygon fill="none" stroke="#000000" points="497.5,-219.2 497.5,-238.2 545.5,-238.2 545.5,-219.2 497.5,-219.2"/>
<text text-anchor="start" x="526.9053" y="-225.3" font-family="Helvetica,sans-Serif" font-size="11.00" fill="#000000">1 &gt;</text>
</a>
</g>
</g>
<!-- workspace_invoice_line_items&#45;&gt;workspace_invoices -->
<g id="edge3" class="edge">
<title>workspace_invoice_line_items:w&#45;&gt;workspace_invoices:e</title>
<path fill="none" stroke="#000000" d="M581.776,-400.2C569.7815,-400.2 562.3229,-400.2 545.5,-400.2"/>
<polygon fill="#000000" stroke="#000000" points="588.5,-400.2001 596.5,-403.8 592.5,-400.2 596.5,-400.2 596.5,-400.2 596.5,-400.2 592.5,-400.2 596.5,-396.6 588.5,-400.2001 588.5,-400.2001"/>
<ellipse fill="none" stroke="#000000" cx="585.3" cy="-400.2001" rx="3.2" ry="3.2"/>
</g>
<!-- workspace_invoices&#45;&gt;workspace_customers -->
<g id="edge4" class="edge">
<title>workspace_invoices:w&#45;&gt;workspace_customers:e</title>
<path fill="none" stroke="#000000" d="M372.3186,-353.3875C360.7124,-348.325 354.9005,-338.2 337.5,-338.2"/>
<polygon fill="#000000" stroke="#000000" points="378.6528,-354.6437 385.7997,-359.7312 382.5764,-355.4218 386.5,-356.2 386.5,-356.2 386.5,-356.2 382.5764,-355.4218 387.2003,-352.6688 378.6528,-354.6437 378.6528,-354.6437"/>
<ellipse fill="none" stroke="#000000" cx="375.514" cy="-354.0212" rx="3.2" ry="3.2"/>
</g>
<!-- workspace_invoices&#45;&gt;workspaces -->
<g id="edge5" class="edge">
<title>workspace_invoices:w&#45;&gt;workspaces:e</title>
<path fill="none" stroke="#000000" d="M372.1002,-378.9821C363.6707,-379.9646 357.58,-381.5951 345,-382.2 261.9848,-386.1915 234.1099,-415.5876 158,-382.2 133.6604,-371.5228 144.0786,-338.2 117.5,-338.2"/>
<polygon fill="#000000" stroke="#000000" points="378.5118,-378.6339 386.6953,-381.7947 382.5059,-378.417 386.5,-378.2 386.5,-378.2 386.5,-378.2 382.5059,-378.417 386.3047,-374.6053 378.5118,-378.6339 378.5118,-378.6339"/>
<ellipse fill="none" stroke="#000000" cx="375.3165" cy="-378.8075" rx="3.2" ry="3.2"/>
</g>
</g>
</svg>
