<?xml version="1.0" encoding="UTF-8" standalone="no"?>
<!DOCTYPE svg PUBLIC "-//W3C//DTD SVG 1.1//EN"
 "http://www.w3.org/Graphics/SVG/1.1/DTD/svg11.dtd">
<!-- Generated by graphviz version 2.40.1 (20161225.0304)
 -->
<!-- Title: oneDegreeRelationshipsDiagram Pages: 1 -->
<svg width="694pt" height="422pt"
 viewBox="0.00 0.00 694.00 421.70" xmlns="http://www.w3.org/2000/svg" xmlns:xlink="http://www.w3.org/1999/xlink">
<g id="graph0" class="graph" transform="scale(1 1) rotate(0) translate(4 417.7)">
<title>oneDegreeRelationshipsDiagram</title>
<polygon fill="#ffffff" stroke="transparent" points="-4,4 -4,-417.7 690,-417.7 690,4 -4,4"/>
<text text-anchor="middle" x="72.4936" y="-7.3" font-family="Helvetica,sans-Serif" font-size="11.00" fill="#000000">Generated by SchemaSpy</text>
<!-- workspace_customers -->
<g id="node1" class="node">
<title>workspace_customers</title>
<g id="a_node1"><a xlink:href="../../tables/workspace_customers.html" xlink:title="workspace_customers" target="_top">
<polygon fill="#ffffff" stroke="transparent" points="219,-38.2 219,-348.2 470,-348.2 470,-38.2 219,-38.2"/>
<polygon fill="#f5f5f5" stroke="transparent" points="221.5,-323.2 221.5,-346.2 468.5,-346.2 468.5,-323.2 221.5,-323.2"/>
<polygon fill="none" stroke="#000000" points="221.5,-323.2 221.5,-346.2 468.5,-346.2 468.5,-323.2 221.5,-323.2"/>
<text text-anchor="start" x="226.5" y="-331.8" font-family="Helvetica,sans-Serif" font-weight="bold" font-size="11.00" fill="#000000">workspace_customers</text>
<text text-anchor="start" x="433.5437" y="-331.3" font-family="Helvetica,sans-Serif" font-size="11.00" fill="#000000">[table]</text>
<polygon fill="none" stroke="#000000" points="221.5,-301.2 221.5,-323.2 374.5,-323.2 374.5,-301.2 221.5,-301.2"/>
<image xlink:href="../../images/primaryKeys.png" width="11px" height="12px" preserveAspectRatio="xMinYMin meet" x="226.5" y="-318.2"/>
<text text-anchor="start" x="241.5" y="-308.3" font-family="Helvetica,sans-Serif" font-size="11.00" fill="#000000">id</text>
<polygon fill="none" stroke="#000000" points="374.5,-301.2 374.5,-323.2 468.5,-323.2 468.5,-301.2 374.5,-301.2"/>
<text text-anchor="start" x="377.4758" y="-308.9" font-family="Helvetica,sans-Serif" font-size="11.00" fill="#000000">uuid[2147483647]</text>
<polygon fill="#ffffff" stroke="transparent" points="221.5,-279.2 221.5,-301.2 374.5,-301.2 374.5,-279.2 221.5,-279.2"/>
<polygon fill="none" stroke="#000000" points="221.5,-279.2 221.5,-301.2 374.5,-301.2 374.5,-279.2 221.5,-279.2"/>
<image xlink:href="../../images/foreignKeys.png" width="11px" height="12px" preserveAspectRatio="xMinYMin meet" x="226.5" y="-296.2"/>
<text text-anchor="start" x="241.5" y="-286.3" font-family="Helvetica,sans-Serif" font-size="11.00" fill="#000000">workspace_id</text>
<polygon fill="none" stroke="#000000" points="374.5,-279.2 374.5,-301.2 468.5,-301.2 468.5,-279.2 374.5,-279.2"/>
<text text-anchor="start" x="377.4758" y="-286.9" font-family="Helvetica,sans-Serif" font-size="11.00" fill="#000000">uuid[2147483647]</text>
<polygon fill="#ffffff" stroke="transparent" points="221.5,-257.2 221.5,-279.2 374.5,-279.2 374.5,-257.2 221.5,-257.2"/>
<polygon fill="none" stroke="#000000" points="221.5,-257.2 221.5,-279.2 374.5,-279.2 374.5,-257.2 221.5,-257.2"/>
<text text-anchor="start" x="241.5" y="-264.3" font-family="Helvetica,sans-Serif" font-size="11.00" fill="#000000">display_name</text>
<polygon fill="none" stroke="#000000" points="374.5,-257.2 374.5,-279.2 468.5,-279.2 468.5,-257.2 374.5,-257.2"/>
<text text-anchor="start" x="377.5" y="-264.9" font-family="Helvetica,sans-Serif" font-size="11.00" fill="#000000">varchar[255]</text>
<polygon fill="#ffffff" stroke="transparent" points="221.5,-235.2 221.5,-257.2 374.5,-257.2 374.5,-235.2 221.5,-235.2"/>
<polygon fill="none" stroke="#000000" points="221.5,-235.2 221.5,-257.2 374.5,-257.2 374.5,-235.2 221.5,-235.2"/>
<text text-anchor="start" x="241.5" y="-242.3" font-family="Helvetica,sans-Serif" font-size="11.00" fill="#000000">email</text>
<polygon fill="none" stroke="#000000" points="374.5,-235.2 374.5,-257.2 468.5,-257.2 468.5,-235.2 374.5,-235.2"/>
<text text-anchor="start" x="377.5" y="-242.9" font-family="Helvetica,sans-Serif" font-size="11.00" fill="#000000">varchar[255]</text>
<polygon fill="#ffffff" stroke="transparent" points="221.5,-213.2 221.5,-235.2 374.5,-235.2 374.5,-213.2 221.5,-213.2"/>
<polygon fill="none" stroke="#000000" points="221.5,-213.2 221.5,-235.2 374.5,-235.2 374.5,-213.2 221.5,-213.2"/>
<text text-anchor="start" x="241.5" y="-220.3" font-family="Helvetica,sans-Serif" font-size="11.00" fill="#000000">mobile</text>
<polygon fill="none" stroke="#000000" points="374.5,-213.2 374.5,-235.2 468.5,-235.2 468.5,-213.2 374.5,-213.2"/>
<text text-anchor="start" x="377.5" y="-220.9" font-family="Helvetica,sans-Serif" font-size="11.00" fill="#000000">varchar[20]</text>
<polygon fill="#ffffff" stroke="transparent" points="221.5,-191.2 221.5,-213.2 374.5,-213.2 374.5,-191.2 221.5,-191.2"/>
<polygon fill="none" stroke="#000000" points="221.5,-191.2 221.5,-213.2 374.5,-213.2 374.5,-191.2 221.5,-191.2"/>
<image xlink:href="../../images/foreignKeys.png" width="11px" height="12px" preserveAspectRatio="xMinYMin meet" x="226.5" y="-208.2"/>
<text text-anchor="start" x="241.5" y="-198.3" font-family="Helvetica,sans-Serif" font-size="11.00" fill="#000000">linked_workspace_id</text>
<polygon fill="none" stroke="#000000" points="374.5,-191.2 374.5,-213.2 468.5,-213.2 468.5,-191.2 374.5,-191.2"/>
<text text-anchor="start" x="377.4758" y="-198.9" font-family="Helvetica,sans-Serif" font-size="11.00" fill="#000000">uuid[2147483647]</text>
<polygon fill="none" stroke="#000000" points="221.5,-169.2 221.5,-191.2 374.5,-191.2 374.5,-169.2 221.5,-169.2"/>
<text text-anchor="start" x="241.5" y="-176.3" font-family="Helvetica,sans-Serif" font-size="11.00" fill="#000000">default_currency</text>
<polygon fill="none" stroke="#000000" points="374.5,-169.2 374.5,-191.2 468.5,-191.2 468.5,-169.2 374.5,-169.2"/>
<text text-anchor="start" x="377.5" y="-176.9" font-family="Helvetica,sans-Serif" font-size="11.00" fill="#000000">varchar[3]</text>
<polygon fill="none" stroke="#000000" points="221.5,-147.2 221.5,-169.2 374.5,-169.2 374.5,-147.2 221.5,-147.2"/>
<text text-anchor="start" x="241.5" y="-154.3" font-family="Helvetica,sans-Serif" font-size="11.00" fill="#000000">created_by</text>
<polygon fill="none" stroke="#000000" points="374.5,-147.2 374.5,-169.2 468.5,-169.2 468.5,-147.2 374.5,-147.2"/>
<text text-anchor="start" x="377.4758" y="-154.9" font-family="Helvetica,sans-Serif" font-size="11.00" fill="#000000">uuid[2147483647]</text>
<polygon fill="none" stroke="#000000" points="221.5,-125.2 221.5,-147.2 374.5,-147.2 374.5,-125.2 221.5,-125.2"/>
<text text-anchor="start" x="241.5" y="-132.3" font-family="Helvetica,sans-Serif" font-size="11.00" fill="#000000">created_at</text>
<polygon fill="none" stroke="#000000" points="374.5,-125.2 374.5,-147.2 468.5,-147.2 468.5,-125.2 374.5,-125.2"/>
<text text-anchor="start" x="377.5" y="-132.9" font-family="Helvetica,sans-Serif" font-size="11.00" fill="#000000">timestamptz[35,6]</text>
<polygon fill="none" stroke="#000000" points="221.5,-103.2 221.5,-125.2 374.5,-125.2 374.5,-103.2 221.5,-103.2"/>
<text text-anchor="start" x="241.5" y="-110.3" font-family="Helvetica,sans-Serif" font-size="11.00" fill="#000000">updated_by</text>
<polygon fill="none" stroke="#000000" points="374.5,-103.2 374.5,-125.2 468.5,-125.2 468.5,-103.2 374.5,-103.2"/>
<text text-anchor="start" x="377.4758" y="-110.9" font-family="Helvetica,sans-Serif" font-size="11.00" fill="#000000">uuid[2147483647]</text>
<polygon fill="none" stroke="#000000" points="221.5,-81.2 221.5,-103.2 374.5,-103.2 374.5,-81.2 221.5,-81.2"/>
<text text-anchor="start" x="241.5" y="-88.3" font-family="Helvetica,sans-Serif" font-size="11.00" fill="#000000">updated_at</text>
<polygon fill="none" stroke="#000000" points="374.5,-81.2 374.5,-103.2 468.5,-103.2 468.5,-81.2 374.5,-81.2"/>
<text text-anchor="start" x="377.5" y="-88.9" font-family="Helvetica,sans-Serif" font-size="11.00" fill="#000000">timestamptz[35,6]</text>
<polygon fill="none" stroke="#000000" points="221.5,-59.2 221.5,-81.2 374.5,-81.2 374.5,-59.2 221.5,-59.2"/>
<text text-anchor="start" x="241.5" y="-66.3" font-family="Helvetica,sans-Serif" font-size="11.00" fill="#000000">is_deleted</text>
<polygon fill="none" stroke="#000000" points="374.5,-59.2 374.5,-81.2 468.5,-81.2 468.5,-59.2 374.5,-59.2"/>
<text text-anchor="start" x="377.5" y="-66.9" font-family="Helvetica,sans-Serif" font-size="11.00" fill="#000000">bool[1]</text>
<polygon fill="#ffffff" stroke="transparent" points="221.5,-40.2 221.5,-59.2 302.5,-59.2 302.5,-40.2 221.5,-40.2"/>
<polygon fill="none" stroke="#000000" points="221.5,-40.2 221.5,-59.2 302.5,-59.2 302.5,-40.2 221.5,-40.2"/>
<text text-anchor="start" x="224.5" y="-46.3" font-family="Helvetica,sans-Serif" font-size="11.00" fill="#000000">&lt; 2</text>
<polygon fill="#ffffff" stroke="transparent" points="302.5,-40.2 302.5,-59.2 374.5,-59.2 374.5,-40.2 302.5,-40.2"/>
<polygon fill="none" stroke="#000000" points="302.5,-40.2 302.5,-59.2 374.5,-59.2 374.5,-40.2 302.5,-40.2"/>
<text text-anchor="start" x="365.3862" y="-46.3" font-family="Helvetica,sans-Serif" font-size="11.00" fill="#000000"> &#160;</text>
<polygon fill="#ffffff" stroke="transparent" points="374.5,-40.2 374.5,-59.2 468.5,-59.2 468.5,-40.2 374.5,-40.2"/>
<polygon fill="none" stroke="#000000" points="374.5,-40.2 374.5,-59.2 468.5,-59.2 468.5,-40.2 374.5,-40.2"/>
<text text-anchor="start" x="449.9053" y="-46.3" font-family="Helvetica,sans-Serif" font-size="11.00" fill="#000000">1 &gt;</text>
<polygon fill="none" stroke="#000000" stroke-width="2" points="220,-39.2 220,-347.2 469,-347.2 469,-39.2 220,-39.2"/>
</a>
</g>
</g>
<!-- workspaces -->
<g id="node2" class="node">
<title>workspaces</title>
<g id="a_node2"><a xlink:href="../../tables/workspaces.html" xlink:title="workspaces" target="_top">
<polygon fill="#ffffff" stroke="transparent" points="8,-65.7 8,-324.7 170,-324.7 170,-65.7 8,-65.7"/>
<polygon fill="#f5f5f5" stroke="transparent" points="8,-301.2 8,-324.2 170,-324.2 170,-301.2 8,-301.2"/>
<polygon fill="none" stroke="#000000" points="8,-301.2 8,-324.2 170,-324.2 170,-301.2 8,-301.2"/>
<text text-anchor="start" x="13" y="-309.8" font-family="Helvetica,sans-Serif" font-weight="bold" font-size="11.00" fill="#000000">workspaces</text>
<text text-anchor="start" x="135.0437" y="-309.3" font-family="Helvetica,sans-Serif" font-size="11.00" fill="#000000">[table]</text>
<polygon fill="none" stroke="#000000" points="8,-279.2 8,-301.2 170,-301.2 170,-279.2 8,-279.2"/>
<image xlink:href="../../images/primaryKeys.png" width="11px" height="12px" preserveAspectRatio="xMinYMin meet" x="13" y="-296.2"/>
<text text-anchor="start" x="28" y="-286.3" font-family="Helvetica,sans-Serif" font-size="11.00" fill="#000000">id</text>
<polygon fill="#ffffff" stroke="transparent" points="8,-257.2 8,-279.2 170,-279.2 170,-257.2 8,-257.2"/>
<polygon fill="none" stroke="#000000" points="8,-257.2 8,-279.2 170,-279.2 170,-257.2 8,-257.2"/>
<text text-anchor="start" x="28" y="-264.3" font-family="Helvetica,sans-Serif" font-size="11.00" fill="#000000">slug</text>
<polygon fill="#ffffff" stroke="transparent" points="8,-235.2 8,-257.2 170,-257.2 170,-235.2 8,-235.2"/>
<polygon fill="none" stroke="#000000" points="8,-235.2 8,-257.2 170,-257.2 170,-235.2 8,-235.2"/>
<text text-anchor="start" x="28" y="-242.3" font-family="Helvetica,sans-Serif" font-size="11.00" fill="#000000">type</text>
<polygon fill="none" stroke="#000000" points="8,-213.2 8,-235.2 170,-235.2 170,-213.2 8,-213.2"/>
<image xlink:href="../../images/foreignKeys.png" width="11px" height="12px" preserveAspectRatio="xMinYMin meet" x="13" y="-230.2"/>
<text text-anchor="start" x="28" y="-220.3" font-family="Helvetica,sans-Serif" font-size="11.00" fill="#000000">currency_id</text>
<polygon fill="#ffffff" stroke="transparent" points="8,-191.2 8,-213.2 170,-213.2 170,-191.2 8,-191.2"/>
<polygon fill="none" stroke="#000000" points="8,-191.2 8,-213.2 170,-213.2 170,-191.2 8,-191.2"/>
<text text-anchor="start" x="28" y="-198.3" font-family="Helvetica,sans-Serif" font-size="11.00" fill="#000000">is_claimed</text>
<polygon fill="none" stroke="#000000" points="8,-169.2 8,-191.2 170,-191.2 170,-169.2 8,-169.2"/>
<image xlink:href="../../images/foreignKeys.png" width="11px" height="12px" preserveAspectRatio="xMinYMin meet" x="13" y="-186.2"/>
<text text-anchor="start" x="28" y="-176.3" font-family="Helvetica,sans-Serif" font-size="11.00" fill="#000000">country_id</text>
<polygon fill="none" stroke="#000000" points="8,-147.2 8,-169.2 170,-169.2 170,-147.2 8,-147.2"/>
<image xlink:href="../../images/foreignKeys.png" width="11px" height="12px" preserveAspectRatio="xMinYMin meet" x="13" y="-164.2"/>
<text text-anchor="start" x="28" y="-154.3" font-family="Helvetica,sans-Serif" font-size="11.00" fill="#000000">created_by</text>
<polygon fill="none" stroke="#000000" points="8,-125.2 8,-147.2 170,-147.2 170,-125.2 8,-125.2"/>
<image xlink:href="../../images/foreignKeys.png" width="11px" height="12px" preserveAspectRatio="xMinYMin meet" x="13" y="-142.2"/>
<text text-anchor="start" x="28" y="-132.3" font-family="Helvetica,sans-Serif" font-size="11.00" fill="#000000">updated_by</text>
<polygon fill="none" stroke="#000000" points="8,-103.2 8,-125.2 170,-125.2 170,-103.2 8,-103.2"/>
<image xlink:href="../../images/foreignKeys.png" width="11px" height="12px" preserveAspectRatio="xMinYMin meet" x="13" y="-120.2"/>
<text text-anchor="start" x="28" y="-110.3" font-family="Helvetica,sans-Serif" font-size="11.00" fill="#000000">deleted_by</text>
<polygon fill="none" stroke="#000000" points="8,-84.2 8,-103.2 170,-103.2 170,-84.2 8,-84.2"/>
<text text-anchor="start" x="11" y="-90.3" font-family="Helvetica,sans-Serif" font-size="11.00" fill="#000000">...</text>
<polygon fill="#ffffff" stroke="transparent" points="8,-65.2 8,-84.2 83,-84.2 83,-65.2 8,-65.2"/>
<polygon fill="none" stroke="#000000" points="8,-65.2 8,-84.2 83,-84.2 83,-65.2 8,-65.2"/>
<text text-anchor="start" x="11" y="-71.3" font-family="Helvetica,sans-Serif" font-size="11.00" fill="#000000">&lt; 5</text>
<polygon fill="#ffffff" stroke="transparent" points="83,-65.2 83,-84.2 122,-84.2 122,-65.2 83,-65.2"/>
<polygon fill="none" stroke="#000000" points="83,-65.2 83,-84.2 122,-84.2 122,-65.2 83,-65.2"/>
<text text-anchor="start" x="112.8862" y="-71.3" font-family="Helvetica,sans-Serif" font-size="11.00" fill="#000000"> &#160;</text>
<polygon fill="#ffffff" stroke="transparent" points="122,-65.2 122,-84.2 170,-84.2 170,-65.2 122,-65.2"/>
<polygon fill="none" stroke="#000000" points="122,-65.2 122,-84.2 170,-84.2 170,-65.2 122,-65.2"/>
<text text-anchor="start" x="151.4053" y="-71.3" font-family="Helvetica,sans-Serif" font-size="11.00" fill="#000000">7 &gt;</text>
</a>
</g>
</g>
<!-- workspace_customers&#45;&gt;workspaces -->
<g id="edge1" class="edge">
<title>workspace_customers:w&#45;&gt;workspaces:e</title>
<path fill="none" stroke="#000000" d="M207.5174,-206.4444C185.0886,-224.0228 209.2979,-290.2 170,-290.2"/>
<polygon fill="#000000" stroke="#000000" points="213.8449,-204.5237 222.5457,-205.6448 217.6725,-203.3619 221.5,-202.2 221.5,-202.2 221.5,-202.2 217.6725,-203.3619 220.4543,-198.7552 213.8449,-204.5237 213.8449,-204.5237"/>
<ellipse fill="none" stroke="#000000" cx="210.7829" cy="-205.4532" rx="3.2" ry="3.2"/>
</g>
<!-- workspace_customers&#45;&gt;workspaces -->
<g id="edge2" class="edge">
<title>workspace_customers:w&#45;&gt;workspaces:e</title>
<path fill="none" stroke="#000000" d="M207.0156,-290.2C194.6771,-290.2 187.1667,-290.2 170,-290.2"/>
<polygon fill="#000000" stroke="#000000" points="213.5,-290.2001 221.5,-293.8 217.5,-290.2 221.5,-290.2 221.5,-290.2 221.5,-290.2 217.5,-290.2 221.5,-286.6 213.5,-290.2001 213.5,-290.2001"/>
<ellipse fill="none" stroke="#000000" cx="210.3" cy="-290.2001" rx="3.2" ry="3.2"/>
</g>
<!-- workspace_invoices -->
<g id="node3" class="node">
<title>workspace_invoices</title>
<g id="a_node3"><a xlink:href="../../tables/workspace_invoices.html" xlink:title="workspace_invoices" target="_top">
<polygon fill="#ffffff" stroke="transparent" points="519,-194.7 519,-409.7 678,-409.7 678,-194.7 519,-194.7"/>
<polygon fill="#f5f5f5" stroke="transparent" points="519.5,-386.2 519.5,-409.2 678.5,-409.2 678.5,-386.2 519.5,-386.2"/>
<polygon fill="none" stroke="#000000" points="519.5,-386.2 519.5,-409.2 678.5,-409.2 678.5,-386.2 519.5,-386.2"/>
<text text-anchor="start" x="524.5" y="-394.8" font-family="Helvetica,sans-Serif" font-weight="bold" font-size="11.00" fill="#000000">workspace_invoices</text>
<text text-anchor="start" x="643.5437" y="-394.3" font-family="Helvetica,sans-Serif" font-size="11.00" fill="#000000">[table]</text>
<polygon fill="none" stroke="#000000" points="519.5,-364.2 519.5,-386.2 678.5,-386.2 678.5,-364.2 519.5,-364.2"/>
<image xlink:href="../../images/primaryKeys.png" width="11px" height="12px" preserveAspectRatio="xMinYMin meet" x="524.5" y="-381.2"/>
<text text-anchor="start" x="539.5" y="-371.3" font-family="Helvetica,sans-Serif" font-size="11.00" fill="#000000">id</text>
<polygon fill="#ffffff" stroke="transparent" points="519.5,-342.2 519.5,-364.2 678.5,-364.2 678.5,-342.2 519.5,-342.2"/>
<polygon fill="none" stroke="#000000" points="519.5,-342.2 519.5,-364.2 678.5,-364.2 678.5,-342.2 519.5,-342.2"/>
<image xlink:href="../../images/foreignKeys.png" width="11px" height="12px" preserveAspectRatio="xMinYMin meet" x="524.5" y="-359.2"/>
<text text-anchor="start" x="539.5" y="-349.3" font-family="Helvetica,sans-Serif" font-size="11.00" fill="#000000">workspace_id</text>
<polygon fill="#ffffff" stroke="transparent" points="519.5,-320.2 519.5,-342.2 678.5,-342.2 678.5,-320.2 519.5,-320.2"/>
<polygon fill="none" stroke="#000000" points="519.5,-320.2 519.5,-342.2 678.5,-342.2 678.5,-320.2 519.5,-320.2"/>
<image xlink:href="../../images/foreignKeys.png" width="11px" height="12px" preserveAspectRatio="xMinYMin meet" x="524.5" y="-337.2"/>
<text text-anchor="start" x="539.5" y="-327.3" font-family="Helvetica,sans-Serif" font-size="11.00" fill="#000000">customer_id</text>
<polygon fill="#ffffff" stroke="transparent" points="519.5,-298.2 519.5,-320.2 678.5,-320.2 678.5,-298.2 519.5,-298.2"/>
<polygon fill="none" stroke="#000000" points="519.5,-298.2 519.5,-320.2 678.5,-320.2 678.5,-298.2 519.5,-298.2"/>
<text text-anchor="start" x="539.5" y="-305.3" font-family="Helvetica,sans-Serif" font-size="11.00" fill="#000000">invoice_number</text>
<polygon fill="#ffffff" stroke="transparent" points="519.5,-276.2 519.5,-298.2 678.5,-298.2 678.5,-276.2 519.5,-276.2"/>
<polygon fill="none" stroke="#000000" points="519.5,-276.2 519.5,-298.2 678.5,-298.2 678.5,-276.2 519.5,-276.2"/>
<text text-anchor="start" x="539.5" y="-283.3" font-family="Helvetica,sans-Serif" font-size="11.00" fill="#000000">status</text>
<polygon fill="#ffffff" stroke="transparent" points="519.5,-254.2 519.5,-276.2 678.5,-276.2 678.5,-254.2 519.5,-254.2"/>
<polygon fill="none" stroke="#000000" points="519.5,-254.2 519.5,-276.2 678.5,-276.2 678.5,-254.2 519.5,-254.2"/>
<text text-anchor="start" x="539.5" y="-261.3" font-family="Helvetica,sans-Serif" font-size="11.00" fill="#000000">issue_date</text>
<polygon fill="#ffffff" stroke="transparent" points="519.5,-232.2 519.5,-254.2 678.5,-254.2 678.5,-232.2 519.5,-232.2"/>
<polygon fill="none" stroke="#000000" points="519.5,-232.2 519.5,-254.2 678.5,-254.2 678.5,-232.2 519.5,-232.2"/>
<text text-anchor="start" x="539.5" y="-239.3" font-family="Helvetica,sans-Serif" font-size="11.00" fill="#000000">due_date</text>
<polygon fill="none" stroke="#000000" points="519.5,-213.2 519.5,-232.2 678.5,-232.2 678.5,-213.2 519.5,-213.2"/>
<text text-anchor="start" x="522.5" y="-219.3" font-family="Helvetica,sans-Serif" font-size="11.00" fill="#000000">...</text>
<polygon fill="#ffffff" stroke="transparent" points="519.5,-194.2 519.5,-213.2 592.5,-213.2 592.5,-194.2 519.5,-194.2"/>
<polygon fill="none" stroke="#000000" points="519.5,-194.2 519.5,-213.2 592.5,-213.2 592.5,-194.2 519.5,-194.2"/>
<text text-anchor="start" x="522.5" y="-200.3" font-family="Helvetica,sans-Serif" font-size="11.00" fill="#000000">&lt; 2</text>
<polygon fill="#ffffff" stroke="transparent" points="592.5,-194.2 592.5,-213.2 630.5,-213.2 630.5,-194.2 592.5,-194.2"/>
<polygon fill="none" stroke="#000000" points="592.5,-194.2 592.5,-213.2 630.5,-213.2 630.5,-194.2 592.5,-194.2"/>
<text text-anchor="start" x="621.3862" y="-200.3" font-family="Helvetica,sans-Serif" font-size="11.00" fill="#000000"> &#160;</text>
<polygon fill="#ffffff" stroke="transparent" points="630.5,-194.2 630.5,-213.2 678.5,-213.2 678.5,-194.2 630.5,-194.2"/>
<polygon fill="none" stroke="#000000" points="630.5,-194.2 630.5,-213.2 678.5,-213.2 678.5,-194.2 630.5,-194.2"/>
<text text-anchor="start" x="659.9053" y="-200.3" font-family="Helvetica,sans-Serif" font-size="11.00" fill="#000000">1 &gt;</text>
</a>
</g>
</g>
<!-- workspace_invoices&#45;&gt;workspace_customers -->
<g id="edge3" class="edge">
<title>workspace_invoices:w&#45;&gt;workspace_customers:e</title>
<path fill="none" stroke="#000000" d="M505.1076,-328.3965C492.7761,-323.1113 486.8304,-312.2 468.5,-312.2"/>
<polygon fill="#000000" stroke="#000000" points="511.6476,-329.6704 518.8117,-334.7336 515.5738,-330.4352 519.5,-331.2 519.5,-331.2 519.5,-331.2 515.5738,-330.4352 520.1883,-327.6664 511.6476,-329.6704 511.6476,-329.6704"/>
<ellipse fill="none" stroke="#000000" cx="508.5066" cy="-329.0585" rx="3.2" ry="3.2"/>
</g>
<!-- workspace_invoices&#45;&gt;workspaces -->
<g id="edge4" class="edge">
<title>workspace_invoices:w&#45;&gt;workspaces:e</title>
<path fill="none" stroke="#000000" d="M505.0696,-354.3728C496.6563,-355.8461 490.6342,-358.2914 478,-359.2 359.639,-367.712 314.1386,-417.8874 211,-359.2 179.9958,-341.5581 205.672,-290.2 170,-290.2"/>
<polygon fill="#000000" stroke="#000000" points="511.5263,-353.8481 519.7916,-356.7882 515.5131,-353.524 519.5,-353.2 519.5,-353.2 519.5,-353.2 515.5131,-353.524 519.2084,-349.6118 511.5263,-353.8481 511.5263,-353.8481"/>
<ellipse fill="none" stroke="#000000" cx="508.3368" cy="-354.1073" rx="3.2" ry="3.2"/>
</g>
</g>
</svg>
