<?xml version="1.0" encoding="UTF-8" standalone="no"?>
<!DOCTYPE svg PUBLIC "-//W3C//DTD SVG 1.1//EN"
 "http://www.w3.org/Graphics/SVG/1.1/DTD/svg11.dtd">
<!-- Generated by graphviz version 2.40.1 (20161225.0304)
 -->
<!-- Title: twoDegreesRelationshipsDiagram Pages: 1 -->
<svg width="1319pt" height="716pt"
 viewBox="0.00 0.00 1319.00 716.20" xmlns="http://www.w3.org/2000/svg" xmlns:xlink="http://www.w3.org/1999/xlink">
<g id="graph0" class="graph" transform="scale(1 1) rotate(0) translate(4 712.2)">
<title>twoDegreesRelationshipsDiagram</title>
<polygon fill="#ffffff" stroke="transparent" points="-4,4 -4,-712.2 1315,-712.2 1315,4 -4,4"/>
<text text-anchor="middle" x="72.4936" y="-7.3" font-family="Helvetica,sans-Serif" font-size="11.00" fill="#000000">Generated by SchemaSpy</text>
<!-- countries -->
<g id="node1" class="node">
<title>countries</title>
<g id="a_node1"><a xlink:href="../../tables/countries.html" xlink:title="countries" target="_top">
<polygon fill="#ffffff" stroke="transparent" points="158,-489.2 158,-550.2 253,-550.2 253,-489.2 158,-489.2"/>
<polygon fill="#f5f5f5" stroke="transparent" points="158.5,-526.7 158.5,-549.7 253.5,-549.7 253.5,-526.7 158.5,-526.7"/>
<polygon fill="none" stroke="#000000" points="158.5,-526.7 158.5,-549.7 253.5,-549.7 253.5,-526.7 158.5,-526.7"/>
<text text-anchor="start" x="163.5" y="-535.3" font-family="Helvetica,sans-Serif" font-weight="bold" font-size="11.00" fill="#000000">countries</text>
<text text-anchor="start" x="219.0219" y="-534.8" font-family="Helvetica,sans-Serif" font-size="11.00" fill="#000000">[table]</text>
<polygon fill="none" stroke="#000000" points="158.5,-507.7 158.5,-526.7 253.5,-526.7 253.5,-507.7 158.5,-507.7"/>
<text text-anchor="start" x="161.5" y="-513.8" font-family="Helvetica,sans-Serif" font-size="11.00" fill="#000000">...</text>
<polygon fill="#ffffff" stroke="transparent" points="158.5,-488.7 158.5,-507.7 180.5,-507.7 180.5,-488.7 158.5,-488.7"/>
<polygon fill="none" stroke="#000000" points="158.5,-488.7 158.5,-507.7 180.5,-507.7 180.5,-488.7 158.5,-488.7"/>
<text text-anchor="start" x="161.5" y="-494.8" font-family="Helvetica,sans-Serif" font-size="11.00" fill="#000000">&lt; 1</text>
<polygon fill="#ffffff" stroke="transparent" points="180.5,-488.7 180.5,-507.7 231.5,-507.7 231.5,-488.7 180.5,-488.7"/>
<polygon fill="none" stroke="#000000" points="180.5,-488.7 180.5,-507.7 231.5,-507.7 231.5,-488.7 180.5,-488.7"/>
<text text-anchor="start" x="183.8807" y="-494.8" font-family="Helvetica,sans-Serif" font-size="11.00" fill="#000000">195 rows</text>
<polygon fill="#ffffff" stroke="transparent" points="231.5,-488.7 231.5,-507.7 253.5,-507.7 253.5,-488.7 231.5,-488.7"/>
<polygon fill="none" stroke="#000000" points="231.5,-488.7 231.5,-507.7 253.5,-507.7 253.5,-488.7 231.5,-488.7"/>
<text text-anchor="start" x="234.9053" y="-494.8" font-family="Helvetica,sans-Serif" font-size="11.00" fill="#000000">3 &gt;</text>
</a>
</g>
</g>
<!-- currencies -->
<g id="node2" class="node">
<title>currencies</title>
<g id="a_node2"><a xlink:href="../../tables/currencies.html" xlink:title="currencies" target="_top">
<polygon fill="#ffffff" stroke="transparent" points="8,-463.2 8,-524.2 109,-524.2 109,-463.2 8,-463.2"/>
<polygon fill="#f5f5f5" stroke="transparent" points="8.5,-500.7 8.5,-523.7 109.5,-523.7 109.5,-500.7 8.5,-500.7"/>
<polygon fill="none" stroke="#000000" points="8.5,-500.7 8.5,-523.7 109.5,-523.7 109.5,-500.7 8.5,-500.7"/>
<text text-anchor="start" x="13.5" y="-509.3" font-family="Helvetica,sans-Serif" font-weight="bold" font-size="11.00" fill="#000000">currencies</text>
<text text-anchor="start" x="75.0219" y="-508.8" font-family="Helvetica,sans-Serif" font-size="11.00" fill="#000000">[table]</text>
<polygon fill="none" stroke="#000000" points="8.5,-481.7 8.5,-500.7 109.5,-500.7 109.5,-481.7 8.5,-481.7"/>
<text text-anchor="start" x="11.5" y="-487.8" font-family="Helvetica,sans-Serif" font-size="11.00" fill="#000000">...</text>
<polygon fill="#ffffff" stroke="transparent" points="8.5,-462.7 8.5,-481.7 29.5,-481.7 29.5,-462.7 8.5,-462.7"/>
<polygon fill="none" stroke="#000000" points="8.5,-462.7 8.5,-481.7 29.5,-481.7 29.5,-462.7 8.5,-462.7"/>
<text text-anchor="start" x="11.5" y="-468.8" font-family="Helvetica,sans-Serif" font-size="11.00" fill="#000000"> &#160;</text>
<polygon fill="#ffffff" stroke="transparent" points="29.5,-462.7 29.5,-481.7 83.5,-481.7 83.5,-462.7 29.5,-462.7"/>
<polygon fill="none" stroke="#000000" points="29.5,-462.7 29.5,-481.7 83.5,-481.7 83.5,-462.7 29.5,-462.7"/>
<text text-anchor="start" x="35.8807" y="-468.8" font-family="Helvetica,sans-Serif" font-size="11.00" fill="#000000">155 rows</text>
<polygon fill="#ffffff" stroke="transparent" points="83.5,-462.7 83.5,-481.7 109.5,-481.7 109.5,-462.7 83.5,-462.7"/>
<polygon fill="none" stroke="#000000" points="83.5,-462.7 83.5,-481.7 109.5,-481.7 109.5,-462.7 83.5,-462.7"/>
<text text-anchor="start" x="90.9053" y="-468.8" font-family="Helvetica,sans-Serif" font-size="11.00" fill="#000000">2 &gt;</text>
</a>
</g>
</g>
<!-- countries&#45;&gt;currencies -->
<g id="edge1" class="edge">
<title>countries:w&#45;&gt;currencies:e</title>
<path fill="none" stroke="#000000" d="M144.2707,-512.8636C132.5311,-505.6313 128.1828,-490.7 109.5,-490.7"/>
<polygon fill="#000000" stroke="#000000" points="150.7758,-514.6174 157.5628,-520.1759 154.6379,-515.6587 158.5,-516.7 158.5,-516.7 158.5,-516.7 154.6379,-515.6587 159.4372,-513.2241 150.7758,-514.6174 150.7758,-514.6174"/>
<ellipse fill="none" stroke="#000000" cx="147.6861" cy="-513.7844" rx="3.2" ry="3.2"/>
</g>
<!-- custom_roles -->
<g id="node3" class="node">
<title>custom_roles</title>
<g id="a_node3"><a xlink:href="../../tables/custom_roles.html" xlink:title="custom_roles" target="_top">
<polygon fill="#ffffff" stroke="transparent" points="647,-643.2 647,-704.2 764,-704.2 764,-643.2 647,-643.2"/>
<polygon fill="#f5f5f5" stroke="transparent" points="647.5,-680.7 647.5,-703.7 764.5,-703.7 764.5,-680.7 647.5,-680.7"/>
<polygon fill="none" stroke="#000000" points="647.5,-680.7 647.5,-703.7 764.5,-703.7 764.5,-680.7 647.5,-680.7"/>
<text text-anchor="start" x="652.5" y="-689.3" font-family="Helvetica,sans-Serif" font-weight="bold" font-size="11.00" fill="#000000">custom_roles</text>
<text text-anchor="start" x="730.0219" y="-688.8" font-family="Helvetica,sans-Serif" font-size="11.00" fill="#000000">[table]</text>
<polygon fill="none" stroke="#000000" points="647.5,-661.7 647.5,-680.7 764.5,-680.7 764.5,-661.7 647.5,-661.7"/>
<text text-anchor="start" x="650.5" y="-667.8" font-family="Helvetica,sans-Serif" font-size="11.00" fill="#000000">...</text>
<polygon fill="#ffffff" stroke="transparent" points="647.5,-642.7 647.5,-661.7 699.5,-661.7 699.5,-642.7 647.5,-642.7"/>
<polygon fill="none" stroke="#000000" points="647.5,-642.7 647.5,-661.7 699.5,-661.7 699.5,-642.7 647.5,-642.7"/>
<text text-anchor="start" x="650.5" y="-648.8" font-family="Helvetica,sans-Serif" font-size="11.00" fill="#000000">&lt; 4</text>
<polygon fill="#ffffff" stroke="transparent" points="699.5,-642.7 699.5,-661.7 727.5,-661.7 727.5,-642.7 699.5,-642.7"/>
<polygon fill="none" stroke="#000000" points="699.5,-642.7 699.5,-661.7 727.5,-661.7 727.5,-642.7 699.5,-642.7"/>
<text text-anchor="start" x="718.3862" y="-648.8" font-family="Helvetica,sans-Serif" font-size="11.00" fill="#000000"> &#160;</text>
<polygon fill="#ffffff" stroke="transparent" points="727.5,-642.7 727.5,-661.7 764.5,-661.7 764.5,-642.7 727.5,-642.7"/>
<polygon fill="none" stroke="#000000" points="727.5,-642.7 727.5,-661.7 764.5,-661.7 764.5,-642.7 727.5,-642.7"/>
<text text-anchor="start" x="745.9053" y="-648.8" font-family="Helvetica,sans-Serif" font-size="11.00" fill="#000000">2 &gt;</text>
</a>
</g>
</g>
<!-- users -->
<g id="node4" class="node">
<title>users</title>
<g id="a_node4"><a xlink:href="../../tables/users.html" xlink:title="users" target="_top">
<polygon fill="#ffffff" stroke="transparent" points="302,-516.2 302,-577.2 373,-577.2 373,-516.2 302,-516.2"/>
<polygon fill="#f5f5f5" stroke="transparent" points="302.5,-553.7 302.5,-576.7 373.5,-576.7 373.5,-553.7 302.5,-553.7"/>
<polygon fill="none" stroke="#000000" points="302.5,-553.7 302.5,-576.7 373.5,-576.7 373.5,-553.7 302.5,-553.7"/>
<text text-anchor="start" x="307.5" y="-562.3" font-family="Helvetica,sans-Serif" font-weight="bold" font-size="11.00" fill="#000000">users</text>
<text text-anchor="start" x="339.0219" y="-561.8" font-family="Helvetica,sans-Serif" font-size="11.00" fill="#000000">[table]</text>
<polygon fill="none" stroke="#000000" points="302.5,-534.7 302.5,-553.7 373.5,-553.7 373.5,-534.7 302.5,-534.7"/>
<text text-anchor="start" x="305.5" y="-540.8" font-family="Helvetica,sans-Serif" font-size="11.00" fill="#000000">...</text>
<polygon fill="#ffffff" stroke="transparent" points="302.5,-515.7 302.5,-534.7 328.5,-534.7 328.5,-515.7 302.5,-515.7"/>
<polygon fill="none" stroke="#000000" points="302.5,-515.7 302.5,-534.7 328.5,-534.7 328.5,-515.7 302.5,-515.7"/>
<text text-anchor="start" x="305.5" y="-521.8" font-family="Helvetica,sans-Serif" font-size="11.00" fill="#000000">&lt; 3</text>
<polygon fill="#ffffff" stroke="transparent" points="328.5,-515.7 328.5,-534.7 343.5,-534.7 343.5,-515.7 328.5,-515.7"/>
<polygon fill="none" stroke="#000000" points="328.5,-515.7 328.5,-534.7 343.5,-534.7 343.5,-515.7 328.5,-515.7"/>
<text text-anchor="start" x="334.3862" y="-521.8" font-family="Helvetica,sans-Serif" font-size="11.00" fill="#000000"> &#160;</text>
<polygon fill="#ffffff" stroke="transparent" points="343.5,-515.7 343.5,-534.7 373.5,-534.7 373.5,-515.7 343.5,-515.7"/>
<polygon fill="none" stroke="#000000" points="343.5,-515.7 343.5,-534.7 373.5,-534.7 373.5,-515.7 343.5,-515.7"/>
<text text-anchor="start" x="348.7904" y="-521.8" font-family="Helvetica,sans-Serif" font-size="11.00" fill="#000000">14 &gt;</text>
</a>
</g>
</g>
<!-- custom_roles&#45;&gt;users -->
<g id="edge2" class="edge">
<title>custom_roles:w&#45;&gt;users:e</title>
<path fill="none" stroke="#000000" d="M632.9861,-670.5017C533.5466,-667.6962 504.7374,-635.2228 414,-579.7 393.4575,-567.1299 397.5832,-543.7 373.5,-543.7"/>
<polygon fill="#000000" stroke="#000000" points="639.5007,-670.5907 647.4508,-674.2997 643.5004,-670.6453 647.5,-670.7 647.5,-670.7 647.5,-670.7 643.5004,-670.6453 647.5492,-667.1003 639.5007,-670.5907 639.5007,-670.5907"/>
<ellipse fill="none" stroke="#000000" cx="636.301" cy="-670.5469" rx="3.2" ry="3.2"/>
</g>
<!-- custom_roles&#45;&gt;users -->
<g id="edge3" class="edge">
<title>custom_roles:w&#45;&gt;users:e</title>
<path fill="none" stroke="#000000" d="M632.9157,-669.6954C533.1011,-661.1962 506.4574,-623.5678 414,-569.7 394.1783,-558.1514 396.4406,-537.7 373.5,-543.7"/>
<polygon fill="#000000" stroke="#000000" points="639.5189,-670.1502 647.2526,-674.2915 643.5095,-670.4251 647.5,-670.7 647.5,-670.7 647.5,-670.7 643.5095,-670.4251 647.7474,-667.1085 639.5189,-670.1502 639.5189,-670.1502"/>
<ellipse fill="none" stroke="#000000" cx="636.3265" cy="-669.9303" rx="3.2" ry="3.2"/>
</g>
<!-- custom_roles&#45;&gt;users -->
<g id="edge4" class="edge">
<title>custom_roles:w&#45;&gt;users:e</title>
<path fill="none" stroke="#000000" d="M632.9157,-671.3698C533.1011,-674.1962 506.4574,-636.5678 414,-582.7 394.1783,-571.1514 396.4406,-550.7 373.5,-543.7"/>
<polygon fill="#000000" stroke="#000000" points="639.5084,-671.0671 647.6652,-674.2962 643.5042,-670.8835 647.5,-670.7 647.5,-670.7 647.5,-670.7 643.5042,-670.8835 647.3348,-667.1038 639.5084,-671.0671 639.5084,-671.0671"/>
<ellipse fill="none" stroke="#000000" cx="636.3118" cy="-671.2139" rx="3.2" ry="3.2"/>
</g>
<!-- workspaces -->
<g id="node5" class="node">
<title>workspaces</title>
<g id="a_node5"><a xlink:href="../../tables/workspaces.html" xlink:title="workspaces" target="_top">
<polygon fill="#ffffff" stroke="transparent" points="422,-452.2 422,-513.2 531,-513.2 531,-452.2 422,-452.2"/>
<polygon fill="#f5f5f5" stroke="transparent" points="422.5,-489.7 422.5,-512.7 531.5,-512.7 531.5,-489.7 422.5,-489.7"/>
<polygon fill="none" stroke="#000000" points="422.5,-489.7 422.5,-512.7 531.5,-512.7 531.5,-489.7 422.5,-489.7"/>
<text text-anchor="start" x="427.5" y="-498.3" font-family="Helvetica,sans-Serif" font-weight="bold" font-size="11.00" fill="#000000">workspaces</text>
<text text-anchor="start" x="497.0219" y="-497.8" font-family="Helvetica,sans-Serif" font-size="11.00" fill="#000000">[table]</text>
<polygon fill="none" stroke="#000000" points="422.5,-470.7 422.5,-489.7 531.5,-489.7 531.5,-470.7 422.5,-470.7"/>
<text text-anchor="start" x="425.5" y="-476.8" font-family="Helvetica,sans-Serif" font-size="11.00" fill="#000000">...</text>
<polygon fill="#ffffff" stroke="transparent" points="422.5,-451.7 422.5,-470.7 470.5,-470.7 470.5,-451.7 422.5,-451.7"/>
<polygon fill="none" stroke="#000000" points="422.5,-451.7 422.5,-470.7 470.5,-470.7 470.5,-451.7 422.5,-451.7"/>
<text text-anchor="start" x="425.5" y="-457.8" font-family="Helvetica,sans-Serif" font-size="11.00" fill="#000000">&lt; 5</text>
<polygon fill="#ffffff" stroke="transparent" points="470.5,-451.7 470.5,-470.7 496.5,-470.7 496.5,-451.7 470.5,-451.7"/>
<polygon fill="none" stroke="#000000" points="470.5,-451.7 470.5,-470.7 496.5,-470.7 496.5,-451.7 470.5,-451.7"/>
<text text-anchor="start" x="487.3862" y="-457.8" font-family="Helvetica,sans-Serif" font-size="11.00" fill="#000000"> &#160;</text>
<polygon fill="#ffffff" stroke="transparent" points="496.5,-451.7 496.5,-470.7 531.5,-470.7 531.5,-451.7 496.5,-451.7"/>
<polygon fill="none" stroke="#000000" points="496.5,-451.7 496.5,-470.7 531.5,-470.7 531.5,-451.7 496.5,-451.7"/>
<text text-anchor="start" x="512.9053" y="-457.8" font-family="Helvetica,sans-Serif" font-size="11.00" fill="#000000">7 &gt;</text>
</a>
</g>
</g>
<!-- custom_roles&#45;&gt;workspaces -->
<g id="edge5" class="edge">
<title>custom_roles:w&#45;&gt;workspaces:e</title>
<path fill="none" stroke="#000000" d="M632.9511,-669.6462C559.3457,-658.9093 511.2445,-568.6971 489.6419,-517.6208"/>
<polygon fill="#000000" stroke="#000000" points="639.5209,-670.122 647.2399,-674.2906 643.5105,-670.411 647.5,-670.7 647.5,-670.7 647.5,-670.7 643.5105,-670.411 647.7601,-667.1094 639.5209,-670.122 639.5209,-670.122"/>
<ellipse fill="none" stroke="#000000" cx="636.3293" cy="-669.8908" rx="3.2" ry="3.2"/>
</g>
<!-- users&#45;&gt;countries -->
<g id="edge16" class="edge">
<title>users:w&#45;&gt;countries:e</title>
<path fill="none" stroke="#000000" d="M288.5757,-539.9458C276.5712,-532.5269 272.5373,-516.7 253.5,-516.7"/>
<polygon fill="#000000" stroke="#000000" points="294.7758,-541.6174 301.5628,-547.1759 298.6379,-542.6587 302.5,-543.7 302.5,-543.7 302.5,-543.7 298.6379,-542.6587 303.4372,-540.2241 294.7758,-541.6174 294.7758,-541.6174"/>
<ellipse fill="none" stroke="#000000" cx="291.6861" cy="-540.7844" rx="3.2" ry="3.2"/>
</g>
<!-- workspaces&#45;&gt;countries -->
<g id="edge22" class="edge">
<title>workspaces:w&#45;&gt;countries:e</title>
<path fill="none" stroke="#000000" d="M399.0975,-490.0331C366.4872,-493.7479 328.2303,-498.929 294,-505.7 275.7024,-509.3194 272.1521,-516.7 253.5,-516.7"/>
<polygon fill="#000000" stroke="#000000" points="405.6967,-489.3057 414.043,-492.0074 409.6726,-488.8674 413.6485,-488.4291 413.6485,-488.4291 413.6485,-488.4291 409.6726,-488.8674 413.254,-484.8507 405.6967,-489.3057 405.6967,-489.3057"/>
<ellipse fill="none" stroke="#000000" cx="402.5159" cy="-489.6564" rx="3.2" ry="3.2"/>
</g>
<!-- workspaces&#45;&gt;currencies -->
<g id="edge24" class="edge">
<title>workspaces:w&#45;&gt;currencies:e</title>
<path fill="none" stroke="#000000" d="M399.3218,-475.0169C332.8795,-470.0057 234.6242,-466.4268 150,-478.7 131.4209,-481.3946 128.2735,-490.7 109.5,-490.7"/>
<polygon fill="#000000" stroke="#000000" points="405.8566,-475.5372 413.5456,-479.7609 409.844,-475.8547 413.8314,-476.1722 413.8314,-476.1722 413.8314,-476.1722 409.844,-475.8547 414.1172,-472.5836 405.8566,-475.5372 405.8566,-475.5372"/>
<ellipse fill="none" stroke="#000000" cx="402.6667" cy="-475.2832" rx="3.2" ry="3.2"/>
</g>
<!-- workspaces&#45;&gt;users -->
<g id="edge23" class="edge">
<title>workspaces:w&#45;&gt;users:e</title>
<path fill="none" stroke="#000000" d="M402.8089,-525.5107C391.1068,-533.4322 380.5531,-540.2532 373.5,-543.7"/>
<polygon fill="#000000" stroke="#000000" points="408.2031,-521.8223 416.8388,-520.2784 411.5049,-519.5645 414.8068,-517.3067 414.8068,-517.3067 414.8068,-517.3067 411.5049,-519.5645 412.7748,-514.335 408.2031,-521.8223 408.2031,-521.8223"/>
<ellipse fill="none" stroke="#000000" cx="405.5616" cy="-523.6285" rx="3.2" ry="3.2"/>
</g>
<!-- workspaces&#45;&gt;users -->
<g id="edge25" class="edge">
<title>workspaces:w&#45;&gt;users:e</title>
<path fill="none" stroke="#000000" d="M416.5604,-525.1508C399.6606,-535.5199 383.2415,-543.7 373.5,-543.7"/>
<polygon fill="#000000" stroke="#000000" points="422.1188,-521.6033 430.7992,-520.3339 425.4906,-519.4513 428.8624,-517.2993 428.8624,-517.2993 428.8624,-517.2993 425.4906,-519.4513 426.9256,-514.2647 422.1188,-521.6033 422.1188,-521.6033"/>
<ellipse fill="none" stroke="#000000" cx="419.4214" cy="-523.3249" rx="3.2" ry="3.2"/>
</g>
<!-- workspaces&#45;&gt;users -->
<g id="edge26" class="edge">
<title>workspaces:w&#45;&gt;users:e</title>
<path fill="none" stroke="#000000" d="M431.0121,-525.588C409.5829,-539.5397 386.0234,-549.82 373.5,-543.7"/>
<polygon fill="#000000" stroke="#000000" points="436.3783,-521.8592 445.0022,-520.2504 439.6631,-519.5766 442.9479,-517.2941 442.9479,-517.2941 442.9479,-517.2941 439.6631,-519.5766 440.8936,-514.3377 436.3783,-521.8592 436.3783,-521.8592"/>
<ellipse fill="none" stroke="#000000" cx="433.7504" cy="-523.6853" rx="3.2" ry="3.2"/>
</g>
<!-- teams -->
<g id="node6" class="node">
<title>teams</title>
<g id="a_node6"><a xlink:href="../../tables/teams.html" xlink:title="teams" target="_top">
<polygon fill="#ffffff" stroke="transparent" points="667.5,-561.2 667.5,-622.2 743.5,-622.2 743.5,-561.2 667.5,-561.2"/>
<polygon fill="#f5f5f5" stroke="transparent" points="667.5,-598.7 667.5,-621.7 743.5,-621.7 743.5,-598.7 667.5,-598.7"/>
<polygon fill="none" stroke="#000000" points="667.5,-598.7 667.5,-621.7 743.5,-621.7 743.5,-598.7 667.5,-598.7"/>
<text text-anchor="start" x="672.5" y="-607.3" font-family="Helvetica,sans-Serif" font-weight="bold" font-size="11.00" fill="#000000">teams</text>
<text text-anchor="start" x="709.0219" y="-606.8" font-family="Helvetica,sans-Serif" font-size="11.00" fill="#000000">[table]</text>
<polygon fill="none" stroke="#000000" points="667.5,-579.7 667.5,-598.7 743.5,-598.7 743.5,-579.7 667.5,-579.7"/>
<text text-anchor="start" x="670.5" y="-585.8" font-family="Helvetica,sans-Serif" font-size="11.00" fill="#000000">...</text>
<polygon fill="#ffffff" stroke="transparent" points="667.5,-560.7 667.5,-579.7 699.5,-579.7 699.5,-560.7 667.5,-560.7"/>
<polygon fill="none" stroke="#000000" points="667.5,-560.7 667.5,-579.7 699.5,-579.7 699.5,-560.7 667.5,-560.7"/>
<text text-anchor="start" x="670.5" y="-566.8" font-family="Helvetica,sans-Serif" font-size="11.00" fill="#000000">&lt; 4</text>
<polygon fill="#ffffff" stroke="transparent" points="699.5,-560.7 699.5,-579.7 716.5,-579.7 716.5,-560.7 699.5,-560.7"/>
<polygon fill="none" stroke="#000000" points="699.5,-560.7 699.5,-579.7 716.5,-579.7 716.5,-560.7 699.5,-560.7"/>
<text text-anchor="start" x="707.3862" y="-566.8" font-family="Helvetica,sans-Serif" font-size="11.00" fill="#000000"> &#160;</text>
<polygon fill="#ffffff" stroke="transparent" points="716.5,-560.7 716.5,-579.7 743.5,-579.7 743.5,-560.7 716.5,-560.7"/>
<polygon fill="none" stroke="#000000" points="716.5,-560.7 716.5,-579.7 743.5,-579.7 743.5,-560.7 716.5,-560.7"/>
<text text-anchor="start" x="724.9053" y="-566.8" font-family="Helvetica,sans-Serif" font-size="11.00" fill="#000000">2 &gt;</text>
</a>
</g>
</g>
<!-- teams&#45;&gt;users -->
<g id="edge6" class="edge">
<title>teams:w&#45;&gt;users:e</title>
<path fill="none" stroke="#000000" d="M652.6648,-588.0979C579.7304,-582.7579 435.0761,-543.7 373.5,-543.7"/>
<polygon fill="#000000" stroke="#000000" points="659.5066,-588.3755 667.354,-592.297 663.5033,-588.5378 667.5,-588.7 667.5,-588.7 667.5,-588.7 663.5033,-588.5378 667.646,-585.103 659.5066,-588.3755 659.5066,-588.3755"/>
<ellipse fill="none" stroke="#000000" cx="656.3092" cy="-588.2457" rx="3.2" ry="3.2"/>
</g>
<!-- teams&#45;&gt;users -->
<g id="edge7" class="edge">
<title>teams:w&#45;&gt;users:e</title>
<path fill="none" stroke="#000000" d="M652.8314,-587.8497C532.9064,-579.3462 500.6539,-537.9285 373.5,-543.7"/>
<polygon fill="#000000" stroke="#000000" points="659.5134,-588.237 667.2916,-592.294 663.5067,-588.4685 667.5,-588.7 667.5,-588.7 667.5,-588.7 663.5067,-588.4685 667.7084,-585.106 659.5134,-588.237 659.5134,-588.237"/>
<ellipse fill="none" stroke="#000000" cx="656.3188" cy="-588.0518" rx="3.2" ry="3.2"/>
</g>
<!-- teams&#45;&gt;users -->
<g id="edge8" class="edge">
<title>teams:w&#45;&gt;users:e</title>
<path fill="none" stroke="#000000" d="M652.8314,-589.2785C532.9064,-592.3274 500.6539,-550.4334 373.5,-543.7"/>
<polygon fill="#000000" stroke="#000000" points="659.5062,-589.0153 667.6419,-592.2972 663.5031,-588.8577 667.5,-588.7 667.5,-588.7 667.5,-588.7 663.5031,-588.8577 667.3581,-585.1028 659.5062,-589.0153 659.5062,-589.0153"/>
<ellipse fill="none" stroke="#000000" cx="656.3087" cy="-589.1414" rx="3.2" ry="3.2"/>
</g>
<!-- teams&#45;&gt;workspaces -->
<g id="edge9" class="edge">
<title>teams:w&#45;&gt;workspaces:e</title>
<path fill="none" stroke="#000000" d="M652.7902,-587.9124C598.0993,-582.1392 545.9009,-545.7865 512.6976,-517.4084"/>
<polygon fill="#000000" stroke="#000000" points="659.5114,-588.2722 667.3075,-592.2949 663.5057,-588.4861 667.5,-588.7 667.5,-588.7 667.5,-588.7 663.5057,-588.4861 667.6925,-585.1051 659.5114,-588.2722 659.5114,-588.2722"/>
<ellipse fill="none" stroke="#000000" cx="656.316" cy="-588.1011" rx="3.2" ry="3.2"/>
</g>
<!-- user_workspace_invitations -->
<g id="node7" class="node">
<title>user_workspace_invitations</title>
<g id="a_node7"><a xlink:href="../../tables/user_workspace_invitations.html" xlink:title="user_workspace_invitations" target="_top">
<polygon fill="#ffffff" stroke="transparent" points="603.5,-479.2 603.5,-540.2 807.5,-540.2 807.5,-479.2 603.5,-479.2"/>
<polygon fill="#f5f5f5" stroke="transparent" points="603.5,-516.7 603.5,-539.7 807.5,-539.7 807.5,-516.7 603.5,-516.7"/>
<polygon fill="none" stroke="#000000" points="603.5,-516.7 603.5,-539.7 807.5,-539.7 807.5,-516.7 603.5,-516.7"/>
<text text-anchor="start" x="608.5" y="-525.3" font-family="Helvetica,sans-Serif" font-weight="bold" font-size="11.00" fill="#000000">user_workspace_invitations</text>
<text text-anchor="start" x="773.0219" y="-524.8" font-family="Helvetica,sans-Serif" font-size="11.00" fill="#000000">[table]</text>
<polygon fill="none" stroke="#000000" points="603.5,-497.7 603.5,-516.7 807.5,-516.7 807.5,-497.7 603.5,-497.7"/>
<text text-anchor="start" x="606.5" y="-503.8" font-family="Helvetica,sans-Serif" font-size="11.00" fill="#000000">...</text>
<polygon fill="#ffffff" stroke="transparent" points="603.5,-478.7 603.5,-497.7 699.5,-497.7 699.5,-478.7 603.5,-478.7"/>
<polygon fill="none" stroke="#000000" points="603.5,-478.7 603.5,-497.7 699.5,-497.7 699.5,-478.7 603.5,-478.7"/>
<text text-anchor="start" x="606.5" y="-484.8" font-family="Helvetica,sans-Serif" font-size="11.00" fill="#000000">&lt; 4</text>
<polygon fill="#ffffff" stroke="transparent" points="699.5,-478.7 699.5,-497.7 748.5,-497.7 748.5,-478.7 699.5,-478.7"/>
<polygon fill="none" stroke="#000000" points="699.5,-478.7 699.5,-497.7 748.5,-497.7 748.5,-478.7 699.5,-478.7"/>
<text text-anchor="start" x="739.3862" y="-484.8" font-family="Helvetica,sans-Serif" font-size="11.00" fill="#000000"> &#160;</text>
<polygon fill="#ffffff" stroke="transparent" points="748.5,-478.7 748.5,-497.7 807.5,-497.7 807.5,-478.7 748.5,-478.7"/>
<polygon fill="none" stroke="#000000" points="748.5,-478.7 748.5,-497.7 807.5,-497.7 807.5,-478.7 748.5,-478.7"/>
<text text-anchor="start" x="788.9053" y="-484.8" font-family="Helvetica,sans-Serif" font-size="11.00" fill="#000000">2 &gt;</text>
</a>
</g>
</g>
<!-- user_workspace_invitations&#45;&gt;users -->
<g id="edge10" class="edge">
<title>user_workspace_invitations:w&#45;&gt;users:e</title>
<path fill="none" stroke="#000000" d="M589.0343,-507.7916C570.8812,-510.7805 562.6582,-519.175 539,-523.7 466.2284,-537.6188 447.5907,-543.7 373.5,-543.7"/>
<polygon fill="#000000" stroke="#000000" points="595.5227,-507.302 603.7709,-510.2898 599.5113,-507.001 603.5,-506.7 603.5,-506.7 603.5,-506.7 599.5113,-507.001 603.2291,-503.1102 595.5227,-507.302 595.5227,-507.302"/>
<ellipse fill="none" stroke="#000000" cx="592.3318" cy="-507.5428" rx="3.2" ry="3.2"/>
</g>
<!-- user_workspace_invitations&#45;&gt;users -->
<g id="edge11" class="edge">
<title>user_workspace_invitations:w&#45;&gt;users:e</title>
<path fill="none" stroke="#000000" d="M588.8973,-507.5031C570.971,-509.6559 562.2991,-515.6658 539,-519.7 465.7648,-532.3806 447.8249,-543.7 373.5,-543.7"/>
<polygon fill="#000000" stroke="#000000" points="595.5121,-507.1394 603.6977,-510.2946 599.506,-506.9197 603.5,-506.7 603.5,-506.7 603.5,-506.7 599.506,-506.9197 603.3023,-503.1054 595.5121,-507.1394 595.5121,-507.1394"/>
<ellipse fill="none" stroke="#000000" cx="592.3169" cy="-507.3151" rx="3.2" ry="3.2"/>
</g>
<!-- user_workspace_invitations&#45;&gt;workspaces -->
<g id="edge12" class="edge">
<title>user_workspace_invitations:w&#45;&gt;workspaces:e</title>
<path fill="none" stroke="#000000" d="M588.881,-506.2245C572.0651,-505.1742 554.8186,-502.4948 539.0421,-499.3034"/>
<polygon fill="#000000" stroke="#000000" points="595.5042,-506.4399 603.3829,-510.2981 599.5021,-506.5699 603.5,-506.7 603.5,-506.7 603.5,-506.7 599.5021,-506.5699 603.6171,-503.1019 595.5042,-506.4399 595.5042,-506.4399"/>
<ellipse fill="none" stroke="#000000" cx="592.3059" cy="-506.3358" rx="3.2" ry="3.2"/>
</g>
<!-- user_workspaces -->
<g id="node8" class="node">
<title>user_workspaces</title>
<g id="a_node8"><a xlink:href="../../tables/user_workspaces.html" xlink:title="user_workspaces" target="_top">
<polygon fill="#ffffff" stroke="transparent" points="635.5,-38.2 635.5,-99.2 775.5,-99.2 775.5,-38.2 635.5,-38.2"/>
<polygon fill="#f5f5f5" stroke="transparent" points="635.5,-75.7 635.5,-98.7 775.5,-98.7 775.5,-75.7 635.5,-75.7"/>
<polygon fill="none" stroke="#000000" points="635.5,-75.7 635.5,-98.7 775.5,-98.7 775.5,-75.7 635.5,-75.7"/>
<text text-anchor="start" x="640.5" y="-84.3" font-family="Helvetica,sans-Serif" font-weight="bold" font-size="11.00" fill="#000000">user_workspaces</text>
<text text-anchor="start" x="741.0219" y="-83.8" font-family="Helvetica,sans-Serif" font-size="11.00" fill="#000000">[table]</text>
<polygon fill="none" stroke="#000000" points="635.5,-56.7 635.5,-75.7 775.5,-75.7 775.5,-56.7 635.5,-56.7"/>
<text text-anchor="start" x="638.5" y="-62.8" font-family="Helvetica,sans-Serif" font-size="11.00" fill="#000000">...</text>
<polygon fill="#ffffff" stroke="transparent" points="635.5,-37.7 635.5,-56.7 699.5,-56.7 699.5,-37.7 635.5,-37.7"/>
<polygon fill="none" stroke="#000000" points="635.5,-37.7 635.5,-56.7 699.5,-56.7 699.5,-37.7 635.5,-37.7"/>
<text text-anchor="start" x="638.5" y="-43.8" font-family="Helvetica,sans-Serif" font-size="11.00" fill="#000000">&lt; 3</text>
<polygon fill="#ffffff" stroke="transparent" points="699.5,-37.7 699.5,-56.7 732.5,-56.7 732.5,-37.7 699.5,-37.7"/>
<polygon fill="none" stroke="#000000" points="699.5,-37.7 699.5,-56.7 732.5,-56.7 732.5,-37.7 699.5,-37.7"/>
<text text-anchor="start" x="723.3862" y="-43.8" font-family="Helvetica,sans-Serif" font-size="11.00" fill="#000000"> &#160;</text>
<polygon fill="#ffffff" stroke="transparent" points="732.5,-37.7 732.5,-56.7 775.5,-56.7 775.5,-37.7 732.5,-37.7"/>
<polygon fill="none" stroke="#000000" points="732.5,-37.7 732.5,-56.7 775.5,-56.7 775.5,-37.7 732.5,-37.7"/>
<text text-anchor="start" x="756.9053" y="-43.8" font-family="Helvetica,sans-Serif" font-size="11.00" fill="#000000">2 &gt;</text>
</a>
</g>
</g>
<!-- user_workspaces&#45;&gt;users -->
<g id="edge13" class="edge">
<title>user_workspaces:w&#45;&gt;users:e</title>
<path fill="none" stroke="#000000" d="M621.003,-66.1317C494.2059,-74.0419 523.6559,-190.9493 414,-441.7 394.4567,-486.3897 422.2761,-543.7 373.5,-543.7"/>
<polygon fill="#000000" stroke="#000000" points="627.5035,-65.9382 635.6072,-69.2984 631.5018,-65.8191 635.5,-65.7 635.5,-65.7 635.5,-65.7 631.5018,-65.8191 635.3928,-62.1016 627.5035,-65.9382 627.5035,-65.9382"/>
<ellipse fill="none" stroke="#000000" cx="624.305" cy="-66.0335" rx="3.2" ry="3.2"/>
</g>
<!-- user_workspaces&#45;&gt;users -->
<g id="edge14" class="edge">
<title>user_workspaces:w&#45;&gt;users:e</title>
<path fill="none" stroke="#000000" d="M624.8261,-65.9208C492.7111,-71.5801 528.8625,-186.3164 414,-445.7 394.9175,-488.7923 420.6284,-543.7 373.5,-543.7"/>
<polygon fill="#000000" stroke="#000000" points="634.6174,-61.7174 634.7829,-69.7157 633.1833,-69.7488 633.0177,-61.7505 634.6174,-61.7174"/>
<polyline fill="none" stroke="#000000" points="635.5,-65.7 631.5009,-65.7828 "/>
<ellipse fill="none" stroke="#000000" cx="628.3015" cy="-65.849" rx="3.2" ry="3.2"/>
</g>
<!-- user_workspaces&#45;&gt;workspaces -->
<g id="edge15" class="edge">
<title>user_workspaces:w&#45;&gt;workspaces:e</title>
<path fill="none" stroke="#000000" d="M621.042,-66.948C597.1593,-71.5328 588.2561,-88.4999 572,-113.7 535.9378,-169.6034 555.3153,-195.2059 539,-259.7 522.0396,-326.7442 499.6562,-404.3635 486.7932,-448.0828"/>
<polygon fill="#000000" stroke="#000000" points="627.5296,-66.3881 635.8096,-69.2867 631.5148,-66.044 635.5,-65.7 635.5,-65.7 635.5,-65.7 631.5148,-66.044 635.1904,-62.1133 627.5296,-66.3881 627.5296,-66.3881"/>
<ellipse fill="none" stroke="#000000" cx="624.3415" cy="-66.6633" rx="3.2" ry="3.2"/>
</g>
<!-- workspace_customers -->
<g id="node9" class="node">
<title>workspace_customers</title>
<g id="a_node9"><a xlink:href="../../tables/workspace_customers.html" xlink:title="workspace_customers" target="_top">
<polygon fill="#ffffff" stroke="transparent" points="580,-147.7 580,-457.7 831,-457.7 831,-147.7 580,-147.7"/>
<polygon fill="#f5f5f5" stroke="transparent" points="582.5,-432.7 582.5,-455.7 829.5,-455.7 829.5,-432.7 582.5,-432.7"/>
<polygon fill="none" stroke="#000000" points="582.5,-432.7 582.5,-455.7 829.5,-455.7 829.5,-432.7 582.5,-432.7"/>
<text text-anchor="start" x="587.5" y="-441.3" font-family="Helvetica,sans-Serif" font-weight="bold" font-size="11.00" fill="#000000">workspace_customers</text>
<text text-anchor="start" x="794.5437" y="-440.8" font-family="Helvetica,sans-Serif" font-size="11.00" fill="#000000">[table]</text>
<polygon fill="none" stroke="#000000" points="582.5,-410.7 582.5,-432.7 735.5,-432.7 735.5,-410.7 582.5,-410.7"/>
<image xlink:href="../../images/primaryKeys.png" width="11px" height="12px" preserveAspectRatio="xMinYMin meet" x="587.5" y="-427.7"/>
<text text-anchor="start" x="602.5" y="-417.8" font-family="Helvetica,sans-Serif" font-size="11.00" fill="#000000">id</text>
<polygon fill="none" stroke="#000000" points="735.5,-410.7 735.5,-432.7 829.5,-432.7 829.5,-410.7 735.5,-410.7"/>
<text text-anchor="start" x="738.4758" y="-418.4" font-family="Helvetica,sans-Serif" font-size="11.00" fill="#000000">uuid[2147483647]</text>
<polygon fill="#ffffff" stroke="transparent" points="582.5,-388.7 582.5,-410.7 735.5,-410.7 735.5,-388.7 582.5,-388.7"/>
<polygon fill="none" stroke="#000000" points="582.5,-388.7 582.5,-410.7 735.5,-410.7 735.5,-388.7 582.5,-388.7"/>
<image xlink:href="../../images/foreignKeys.png" width="11px" height="12px" preserveAspectRatio="xMinYMin meet" x="587.5" y="-405.7"/>
<text text-anchor="start" x="602.5" y="-395.8" font-family="Helvetica,sans-Serif" font-size="11.00" fill="#000000">workspace_id</text>
<polygon fill="none" stroke="#000000" points="735.5,-388.7 735.5,-410.7 829.5,-410.7 829.5,-388.7 735.5,-388.7"/>
<text text-anchor="start" x="738.4758" y="-396.4" font-family="Helvetica,sans-Serif" font-size="11.00" fill="#000000">uuid[2147483647]</text>
<polygon fill="#ffffff" stroke="transparent" points="582.5,-366.7 582.5,-388.7 735.5,-388.7 735.5,-366.7 582.5,-366.7"/>
<polygon fill="none" stroke="#000000" points="582.5,-366.7 582.5,-388.7 735.5,-388.7 735.5,-366.7 582.5,-366.7"/>
<text text-anchor="start" x="602.5" y="-373.8" font-family="Helvetica,sans-Serif" font-size="11.00" fill="#000000">display_name</text>
<polygon fill="none" stroke="#000000" points="735.5,-366.7 735.5,-388.7 829.5,-388.7 829.5,-366.7 735.5,-366.7"/>
<text text-anchor="start" x="738.5" y="-374.4" font-family="Helvetica,sans-Serif" font-size="11.00" fill="#000000">varchar[255]</text>
<polygon fill="#ffffff" stroke="transparent" points="582.5,-344.7 582.5,-366.7 735.5,-366.7 735.5,-344.7 582.5,-344.7"/>
<polygon fill="none" stroke="#000000" points="582.5,-344.7 582.5,-366.7 735.5,-366.7 735.5,-344.7 582.5,-344.7"/>
<text text-anchor="start" x="602.5" y="-351.8" font-family="Helvetica,sans-Serif" font-size="11.00" fill="#000000">email</text>
<polygon fill="none" stroke="#000000" points="735.5,-344.7 735.5,-366.7 829.5,-366.7 829.5,-344.7 735.5,-344.7"/>
<text text-anchor="start" x="738.5" y="-352.4" font-family="Helvetica,sans-Serif" font-size="11.00" fill="#000000">varchar[255]</text>
<polygon fill="#ffffff" stroke="transparent" points="582.5,-322.7 582.5,-344.7 735.5,-344.7 735.5,-322.7 582.5,-322.7"/>
<polygon fill="none" stroke="#000000" points="582.5,-322.7 582.5,-344.7 735.5,-344.7 735.5,-322.7 582.5,-322.7"/>
<text text-anchor="start" x="602.5" y="-329.8" font-family="Helvetica,sans-Serif" font-size="11.00" fill="#000000">mobile</text>
<polygon fill="none" stroke="#000000" points="735.5,-322.7 735.5,-344.7 829.5,-344.7 829.5,-322.7 735.5,-322.7"/>
<text text-anchor="start" x="738.5" y="-330.4" font-family="Helvetica,sans-Serif" font-size="11.00" fill="#000000">varchar[20]</text>
<polygon fill="#ffffff" stroke="transparent" points="582.5,-300.7 582.5,-322.7 735.5,-322.7 735.5,-300.7 582.5,-300.7"/>
<polygon fill="none" stroke="#000000" points="582.5,-300.7 582.5,-322.7 735.5,-322.7 735.5,-300.7 582.5,-300.7"/>
<image xlink:href="../../images/foreignKeys.png" width="11px" height="12px" preserveAspectRatio="xMinYMin meet" x="587.5" y="-317.7"/>
<text text-anchor="start" x="602.5" y="-307.8" font-family="Helvetica,sans-Serif" font-size="11.00" fill="#000000">linked_workspace_id</text>
<polygon fill="none" stroke="#000000" points="735.5,-300.7 735.5,-322.7 829.5,-322.7 829.5,-300.7 735.5,-300.7"/>
<text text-anchor="start" x="738.4758" y="-308.4" font-family="Helvetica,sans-Serif" font-size="11.00" fill="#000000">uuid[2147483647]</text>
<polygon fill="none" stroke="#000000" points="582.5,-278.7 582.5,-300.7 735.5,-300.7 735.5,-278.7 582.5,-278.7"/>
<text text-anchor="start" x="602.5" y="-285.8" font-family="Helvetica,sans-Serif" font-size="11.00" fill="#000000">default_currency</text>
<polygon fill="none" stroke="#000000" points="735.5,-278.7 735.5,-300.7 829.5,-300.7 829.5,-278.7 735.5,-278.7"/>
<text text-anchor="start" x="738.5" y="-286.4" font-family="Helvetica,sans-Serif" font-size="11.00" fill="#000000">varchar[3]</text>
<polygon fill="none" stroke="#000000" points="582.5,-256.7 582.5,-278.7 735.5,-278.7 735.5,-256.7 582.5,-256.7"/>
<text text-anchor="start" x="602.5" y="-263.8" font-family="Helvetica,sans-Serif" font-size="11.00" fill="#000000">created_by</text>
<polygon fill="none" stroke="#000000" points="735.5,-256.7 735.5,-278.7 829.5,-278.7 829.5,-256.7 735.5,-256.7"/>
<text text-anchor="start" x="738.4758" y="-264.4" font-family="Helvetica,sans-Serif" font-size="11.00" fill="#000000">uuid[2147483647]</text>
<polygon fill="none" stroke="#000000" points="582.5,-234.7 582.5,-256.7 735.5,-256.7 735.5,-234.7 582.5,-234.7"/>
<text text-anchor="start" x="602.5" y="-241.8" font-family="Helvetica,sans-Serif" font-size="11.00" fill="#000000">created_at</text>
<polygon fill="none" stroke="#000000" points="735.5,-234.7 735.5,-256.7 829.5,-256.7 829.5,-234.7 735.5,-234.7"/>
<text text-anchor="start" x="738.5" y="-242.4" font-family="Helvetica,sans-Serif" font-size="11.00" fill="#000000">timestamptz[35,6]</text>
<polygon fill="none" stroke="#000000" points="582.5,-212.7 582.5,-234.7 735.5,-234.7 735.5,-212.7 582.5,-212.7"/>
<text text-anchor="start" x="602.5" y="-219.8" font-family="Helvetica,sans-Serif" font-size="11.00" fill="#000000">updated_by</text>
<polygon fill="none" stroke="#000000" points="735.5,-212.7 735.5,-234.7 829.5,-234.7 829.5,-212.7 735.5,-212.7"/>
<text text-anchor="start" x="738.4758" y="-220.4" font-family="Helvetica,sans-Serif" font-size="11.00" fill="#000000">uuid[2147483647]</text>
<polygon fill="none" stroke="#000000" points="582.5,-190.7 582.5,-212.7 735.5,-212.7 735.5,-190.7 582.5,-190.7"/>
<text text-anchor="start" x="602.5" y="-197.8" font-family="Helvetica,sans-Serif" font-size="11.00" fill="#000000">updated_at</text>
<polygon fill="none" stroke="#000000" points="735.5,-190.7 735.5,-212.7 829.5,-212.7 829.5,-190.7 735.5,-190.7"/>
<text text-anchor="start" x="738.5" y="-198.4" font-family="Helvetica,sans-Serif" font-size="11.00" fill="#000000">timestamptz[35,6]</text>
<polygon fill="none" stroke="#000000" points="582.5,-168.7 582.5,-190.7 735.5,-190.7 735.5,-168.7 582.5,-168.7"/>
<text text-anchor="start" x="602.5" y="-175.8" font-family="Helvetica,sans-Serif" font-size="11.00" fill="#000000">is_deleted</text>
<polygon fill="none" stroke="#000000" points="735.5,-168.7 735.5,-190.7 829.5,-190.7 829.5,-168.7 735.5,-168.7"/>
<text text-anchor="start" x="738.5" y="-176.4" font-family="Helvetica,sans-Serif" font-size="11.00" fill="#000000">bool[1]</text>
<polygon fill="#ffffff" stroke="transparent" points="582.5,-149.7 582.5,-168.7 663.5,-168.7 663.5,-149.7 582.5,-149.7"/>
<polygon fill="none" stroke="#000000" points="582.5,-149.7 582.5,-168.7 663.5,-168.7 663.5,-149.7 582.5,-149.7"/>
<text text-anchor="start" x="585.5" y="-155.8" font-family="Helvetica,sans-Serif" font-size="11.00" fill="#000000">&lt; 2</text>
<polygon fill="#ffffff" stroke="transparent" points="663.5,-149.7 663.5,-168.7 735.5,-168.7 735.5,-149.7 663.5,-149.7"/>
<polygon fill="none" stroke="#000000" points="663.5,-149.7 663.5,-168.7 735.5,-168.7 735.5,-149.7 663.5,-149.7"/>
<text text-anchor="start" x="726.3862" y="-155.8" font-family="Helvetica,sans-Serif" font-size="11.00" fill="#000000"> &#160;</text>
<polygon fill="#ffffff" stroke="transparent" points="735.5,-149.7 735.5,-168.7 829.5,-168.7 829.5,-149.7 735.5,-149.7"/>
<polygon fill="none" stroke="#000000" points="735.5,-149.7 735.5,-168.7 829.5,-168.7 829.5,-149.7 735.5,-149.7"/>
<text text-anchor="start" x="810.9053" y="-155.8" font-family="Helvetica,sans-Serif" font-size="11.00" fill="#000000">1 &gt;</text>
<polygon fill="none" stroke="#000000" stroke-width="2" points="581,-148.7 581,-456.7 830,-456.7 830,-148.7 581,-148.7"/>
</a>
</g>
</g>
<!-- workspace_customers&#45;&gt;workspaces -->
<g id="edge17" class="edge">
<title>workspace_customers:w&#45;&gt;workspaces:e</title>
<path fill="none" stroke="#000000" d="M567.9261,-313.2996C514.751,-325.3083 491.3593,-402.1301 482.0155,-448.0956"/>
<polygon fill="#000000" stroke="#000000" points="574.5478,-312.5729 582.8928,-315.2785 578.5239,-312.1364 582.5,-311.7 582.5,-311.7 582.5,-311.7 578.5239,-312.1364 582.1072,-308.1215 574.5478,-312.5729 574.5478,-312.5729"/>
<ellipse fill="none" stroke="#000000" cx="571.3669" cy="-312.922" rx="3.2" ry="3.2"/>
</g>
<!-- workspace_customers&#45;&gt;workspaces -->
<g id="edge18" class="edge">
<title>workspace_customers:w&#45;&gt;workspaces:e</title>
<path fill="none" stroke="#000000" d="M568.0163,-401.2954C540.9205,-407.2198 517.4717,-428.6134 501.0944,-447.9814"/>
<polygon fill="#000000" stroke="#000000" points="574.5481,-400.576 582.8942,-403.2784 578.524,-400.138 582.5,-399.7 582.5,-399.7 582.5,-399.7 578.524,-400.138 582.1058,-396.1216 574.5481,-400.576 574.5481,-400.576"/>
<ellipse fill="none" stroke="#000000" cx="571.3673" cy="-400.9263" rx="3.2" ry="3.2"/>
</g>
<!-- workspace_invoice_line_items -->
<g id="node10" class="node">
<title>workspace_invoice_line_items</title>
<g id="a_node10"><a xlink:href="../../tables/workspace_invoice_line_items.html" xlink:title="workspace_invoice_line_items" target="_top">
<polygon fill="#ffffff" stroke="transparent" points="1086,-245.2 1086,-306.2 1303,-306.2 1303,-245.2 1086,-245.2"/>
<polygon fill="#f5f5f5" stroke="transparent" points="1086.5,-282.7 1086.5,-305.7 1303.5,-305.7 1303.5,-282.7 1086.5,-282.7"/>
<polygon fill="none" stroke="#000000" points="1086.5,-282.7 1086.5,-305.7 1303.5,-305.7 1303.5,-282.7 1086.5,-282.7"/>
<text text-anchor="start" x="1091.5" y="-291.3" font-family="Helvetica,sans-Serif" font-weight="bold" font-size="11.00" fill="#000000">workspace_invoice_line_items</text>
<text text-anchor="start" x="1269.0219" y="-290.8" font-family="Helvetica,sans-Serif" font-size="11.00" fill="#000000">[table]</text>
<polygon fill="none" stroke="#000000" points="1086.5,-263.7 1086.5,-282.7 1303.5,-282.7 1303.5,-263.7 1086.5,-263.7"/>
<text text-anchor="start" x="1089.5" y="-269.8" font-family="Helvetica,sans-Serif" font-size="11.00" fill="#000000">...</text>
<polygon fill="#ffffff" stroke="transparent" points="1086.5,-244.7 1086.5,-263.7 1193.5,-263.7 1193.5,-244.7 1086.5,-244.7"/>
<polygon fill="none" stroke="#000000" points="1086.5,-244.7 1086.5,-263.7 1193.5,-263.7 1193.5,-244.7 1086.5,-244.7"/>
<text text-anchor="start" x="1089.5" y="-250.8" font-family="Helvetica,sans-Serif" font-size="11.00" fill="#000000">&lt; 1</text>
<polygon fill="#ffffff" stroke="transparent" points="1193.5,-244.7 1193.5,-263.7 1248.5,-263.7 1248.5,-244.7 1193.5,-244.7"/>
<polygon fill="none" stroke="#000000" points="1193.5,-244.7 1193.5,-263.7 1248.5,-263.7 1248.5,-244.7 1193.5,-244.7"/>
<text text-anchor="start" x="1239.3862" y="-250.8" font-family="Helvetica,sans-Serif" font-size="11.00" fill="#000000"> &#160;</text>
<polygon fill="#ffffff" stroke="transparent" points="1248.5,-244.7 1248.5,-263.7 1303.5,-263.7 1303.5,-244.7 1248.5,-244.7"/>
<polygon fill="none" stroke="#000000" points="1248.5,-244.7 1248.5,-263.7 1303.5,-263.7 1303.5,-244.7 1248.5,-244.7"/>
<text text-anchor="start" x="1294.3862" y="-250.8" font-family="Helvetica,sans-Serif" font-size="11.00" fill="#000000"> &#160;</text>
</a>
</g>
</g>
<!-- workspace_invoices -->
<g id="node11" class="node">
<title>workspace_invoices</title>
<g id="a_node11"><a xlink:href="../../tables/workspace_invoices.html" xlink:title="workspace_invoices" target="_top">
<polygon fill="#ffffff" stroke="transparent" points="880,-242.2 880,-303.2 1037,-303.2 1037,-242.2 880,-242.2"/>
<polygon fill="#f5f5f5" stroke="transparent" points="880.5,-279.7 880.5,-302.7 1037.5,-302.7 1037.5,-279.7 880.5,-279.7"/>
<polygon fill="none" stroke="#000000" points="880.5,-279.7 880.5,-302.7 1037.5,-302.7 1037.5,-279.7 880.5,-279.7"/>
<text text-anchor="start" x="885.5" y="-288.3" font-family="Helvetica,sans-Serif" font-weight="bold" font-size="11.00" fill="#000000">workspace_invoices</text>
<text text-anchor="start" x="1003.0219" y="-287.8" font-family="Helvetica,sans-Serif" font-size="11.00" fill="#000000">[table]</text>
<polygon fill="none" stroke="#000000" points="880.5,-260.7 880.5,-279.7 1037.5,-279.7 1037.5,-260.7 880.5,-260.7"/>
<text text-anchor="start" x="883.5" y="-266.8" font-family="Helvetica,sans-Serif" font-size="11.00" fill="#000000">...</text>
<polygon fill="#ffffff" stroke="transparent" points="880.5,-241.7 880.5,-260.7 952.5,-260.7 952.5,-241.7 880.5,-241.7"/>
<polygon fill="none" stroke="#000000" points="880.5,-241.7 880.5,-260.7 952.5,-260.7 952.5,-241.7 880.5,-241.7"/>
<text text-anchor="start" x="883.5" y="-247.8" font-family="Helvetica,sans-Serif" font-size="11.00" fill="#000000">&lt; 2</text>
<polygon fill="#ffffff" stroke="transparent" points="952.5,-241.7 952.5,-260.7 990.5,-260.7 990.5,-241.7 952.5,-241.7"/>
<polygon fill="none" stroke="#000000" points="952.5,-241.7 952.5,-260.7 990.5,-260.7 990.5,-241.7 952.5,-241.7"/>
<text text-anchor="start" x="981.3862" y="-247.8" font-family="Helvetica,sans-Serif" font-size="11.00" fill="#000000"> &#160;</text>
<polygon fill="#ffffff" stroke="transparent" points="990.5,-241.7 990.5,-260.7 1037.5,-260.7 1037.5,-241.7 990.5,-241.7"/>
<polygon fill="none" stroke="#000000" points="990.5,-241.7 990.5,-260.7 1037.5,-260.7 1037.5,-241.7 990.5,-241.7"/>
<text text-anchor="start" x="1018.9053" y="-247.8" font-family="Helvetica,sans-Serif" font-size="11.00" fill="#000000">1 &gt;</text>
</a>
</g>
</g>
<!-- workspace_invoice_line_items&#45;&gt;workspace_invoices -->
<g id="edge19" class="edge">
<title>workspace_invoice_line_items:w&#45;&gt;workspace_invoices:e</title>
<path fill="none" stroke="#000000" d="M1071.8733,-272.7C1063.0628,-272.7 1054.0937,-272.7 1045.2549,-272.7"/>
<polygon fill="#000000" stroke="#000000" points="1078.5,-272.7001 1086.5,-276.3 1082.5,-272.7 1086.5,-272.7 1086.5,-272.7 1086.5,-272.7 1082.5,-272.7 1086.5,-269.1 1078.5,-272.7001 1078.5,-272.7001"/>
<ellipse fill="none" stroke="#000000" cx="1075.3" cy="-272.7001" rx="3.2" ry="3.2"/>
</g>
<!-- workspace_invoices&#45;&gt;workspaces -->
<g id="edge21" class="edge">
<title>workspace_invoices:w&#45;&gt;workspaces:e</title>
<path fill="none" stroke="#000000" d="M931.9041,-225.5345C911.1552,-193.9177 879.1429,-154.8653 839,-136.7 784.9437,-112.2387 619.0781,-100.5877 572,-136.7 527.0907,-171.1487 553.9709,-205.1159 539,-259.7 520.7079,-326.3932 498.7823,-404.1332 486.3631,-447.9695"/>
<polygon fill="#000000" stroke="#000000" points="935.5637,-231.3382 936.7855,-240.0254 937.6972,-234.7217 939.8307,-238.1052 939.8307,-238.1052 939.8307,-238.1052 937.6972,-234.7217 942.8759,-236.1851 935.5637,-231.3382 935.5637,-231.3382"/>
<ellipse fill="none" stroke="#000000" cx="933.8569" cy="-228.6314" rx="3.2" ry="3.2"/>
</g>
<!-- workspace_invoices&#45;&gt;workspace_customers -->
<g id="edge20" class="edge">
<title>workspace_invoices:w&#45;&gt;workspace_customers:e</title>
<path fill="none" stroke="#000000" d="M940.4642,-320.5363C920.5621,-364.1091 883.9568,-421.7 829.5,-421.7"/>
<polygon fill="#000000" stroke="#000000" points="943.0399,-314.5975 949.5259,-308.6906 944.6315,-310.9278 946.2232,-307.2581 946.2232,-307.2581 946.2232,-307.2581 944.6315,-310.9278 942.9204,-305.8257 943.0399,-314.5975 943.0399,-314.5975"/>
<ellipse fill="none" stroke="#000000" cx="941.7666" cy="-317.5333" rx="3.2" ry="3.2"/>
</g>
</g>
</svg>
