<?xml version="1.0" encoding="UTF-8" standalone="no"?>
<!DOCTYPE svg PUBLIC "-//W3C//DTD SVG 1.1//EN"
 "http://www.w3.org/Graphics/SVG/1.1/DTD/svg11.dtd">
<!-- Generated by graphviz version 2.40.1 (20161225.0304)
 -->
<!-- Title: orphans Pages: 1 -->
<svg width="270pt" height="282pt"
 viewBox="0.00 0.00 270.00 282.00" xmlns="http://www.w3.org/2000/svg" xmlns:xlink="http://www.w3.org/1999/xlink">
<g id="graph0" class="graph" transform="scale(1 1) rotate(0) translate(4 278)">
<title>orphans</title>
<polygon fill="#ffffff" stroke="transparent" points="-4,4 -4,-278 266,-278 266,4 -4,4"/>
<!-- flyway_schema_history -->
<g id="node1" class="node">
<title>flyway_schema_history</title>
<g id="a_node1"><a xlink:href="../../tables/flyway_schema_history.html" xlink:title="flyway_schema_history" target="_top">
<polygon fill="#ffffff" stroke="transparent" points="8,-4 8,-270 254,-270 254,-4 8,-4"/>
<polygon fill="#f5f5f5" stroke="transparent" points="10,-245 10,-268 252,-268 252,-245 10,-245"/>
<polygon fill="none" stroke="#000000" points="10,-245 10,-268 252,-268 252,-245 10,-245"/>
<text text-anchor="start" x="15" y="-253.6" font-family="Helvetica,sans-Serif" font-weight="bold" font-size="11.00" fill="#000000">flyway_schema_history</text>
<text text-anchor="start" x="217.0437" y="-253.1" font-family="Helvetica,sans-Serif" font-size="11.00" fill="#000000">[table]</text>
<polygon fill="none" stroke="#000000" points="10,-223 10,-245 168,-245 168,-223 10,-223"/>
<image xlink:href="../../images/primaryKeys.png" width="11px" height="12px" preserveAspectRatio="xMinYMin meet" x="15" y="-240"/>
<text text-anchor="start" x="30" y="-230.1" font-family="Helvetica,sans-Serif" font-size="11.00" fill="#000000">installed_rank</text>
<polygon fill="none" stroke="#000000" points="168,-223 168,-245 252,-245 252,-223 168,-223"/>
<text text-anchor="start" x="171" y="-230.7" font-family="Helvetica,sans-Serif" font-size="11.00" fill="#000000">int4[10]</text>
<polygon fill="none" stroke="#000000" points="10,-201 10,-223 168,-223 168,-201 10,-201"/>
<text text-anchor="start" x="30" y="-208.1" font-family="Helvetica,sans-Serif" font-size="11.00" fill="#000000">version</text>
<polygon fill="none" stroke="#000000" points="168,-201 168,-223 252,-223 252,-201 168,-201"/>
<text text-anchor="start" x="171" y="-208.7" font-family="Helvetica,sans-Serif" font-size="11.00" fill="#000000">varchar[50]</text>
<polygon fill="none" stroke="#000000" points="10,-179 10,-201 168,-201 168,-179 10,-179"/>
<text text-anchor="start" x="30" y="-186.1" font-family="Helvetica,sans-Serif" font-size="11.00" fill="#000000">description</text>
<polygon fill="none" stroke="#000000" points="168,-179 168,-201 252,-201 252,-179 168,-179"/>
<text text-anchor="start" x="171" y="-186.7" font-family="Helvetica,sans-Serif" font-size="11.00" fill="#000000">varchar[200]</text>
<polygon fill="none" stroke="#000000" points="10,-157 10,-179 168,-179 168,-157 10,-157"/>
<text text-anchor="start" x="30" y="-164.1" font-family="Helvetica,sans-Serif" font-size="11.00" fill="#000000">type</text>
<polygon fill="none" stroke="#000000" points="168,-157 168,-179 252,-179 252,-157 168,-157"/>
<text text-anchor="start" x="171" y="-164.7" font-family="Helvetica,sans-Serif" font-size="11.00" fill="#000000">varchar[20]</text>
<polygon fill="none" stroke="#000000" points="10,-135 10,-157 168,-157 168,-135 10,-135"/>
<text text-anchor="start" x="30" y="-142.1" font-family="Helvetica,sans-Serif" font-size="11.00" fill="#000000">script</text>
<polygon fill="none" stroke="#000000" points="168,-135 168,-157 252,-157 252,-135 168,-135"/>
<text text-anchor="start" x="171" y="-142.7" font-family="Helvetica,sans-Serif" font-size="11.00" fill="#000000">varchar[1000]</text>
<polygon fill="none" stroke="#000000" points="10,-113 10,-135 168,-135 168,-113 10,-113"/>
<text text-anchor="start" x="30" y="-120.1" font-family="Helvetica,sans-Serif" font-size="11.00" fill="#000000">checksum</text>
<polygon fill="none" stroke="#000000" points="168,-113 168,-135 252,-135 252,-113 168,-113"/>
<text text-anchor="start" x="171" y="-120.7" font-family="Helvetica,sans-Serif" font-size="11.00" fill="#000000">int4[10]</text>
<polygon fill="none" stroke="#000000" points="10,-91 10,-113 168,-113 168,-91 10,-91"/>
<text text-anchor="start" x="30" y="-98.1" font-family="Helvetica,sans-Serif" font-size="11.00" fill="#000000">installed_by</text>
<polygon fill="none" stroke="#000000" points="168,-91 168,-113 252,-113 252,-91 168,-91"/>
<text text-anchor="start" x="171" y="-98.7" font-family="Helvetica,sans-Serif" font-size="11.00" fill="#000000">varchar[100]</text>
<polygon fill="none" stroke="#000000" points="10,-69 10,-91 168,-91 168,-69 10,-69"/>
<text text-anchor="start" x="30" y="-76.1" font-family="Helvetica,sans-Serif" font-size="11.00" fill="#000000">installed_on</text>
<polygon fill="none" stroke="#000000" points="168,-69 168,-91 252,-91 252,-69 168,-69"/>
<text text-anchor="start" x="170.8807" y="-76.7" font-family="Helvetica,sans-Serif" font-size="11.00" fill="#000000">timestamp[29,6]</text>
<polygon fill="none" stroke="#000000" points="10,-47 10,-69 168,-69 168,-47 10,-47"/>
<text text-anchor="start" x="30" y="-54.1" font-family="Helvetica,sans-Serif" font-size="11.00" fill="#000000">execution_time</text>
<polygon fill="none" stroke="#000000" points="168,-47 168,-69 252,-69 252,-47 168,-47"/>
<text text-anchor="start" x="171" y="-54.7" font-family="Helvetica,sans-Serif" font-size="11.00" fill="#000000">int4[10]</text>
<polygon fill="#ffffff" stroke="transparent" points="10,-25 10,-47 168,-47 168,-25 10,-25"/>
<polygon fill="none" stroke="#000000" points="10,-25 10,-47 168,-47 168,-25 10,-25"/>
<text text-anchor="start" x="30" y="-32.1" font-family="Helvetica,sans-Serif" font-size="11.00" fill="#000000">success</text>
<polygon fill="none" stroke="#000000" points="168,-25 168,-47 252,-47 252,-25 168,-25"/>
<text text-anchor="start" x="171" y="-32.7" font-family="Helvetica,sans-Serif" font-size="11.00" fill="#000000">bool[1]</text>
<polygon fill="#ffffff" stroke="transparent" points="10,-6 10,-25 93,-25 93,-6 10,-6"/>
<polygon fill="none" stroke="#000000" points="10,-6 10,-25 93,-25 93,-6 10,-6"/>
<text text-anchor="start" x="13" y="-12.1" font-family="Helvetica,sans-Serif" font-size="11.00" fill="#000000">&lt; 0</text>
<polygon fill="#ffffff" stroke="transparent" points="93,-6 93,-25 168,-25 168,-6 93,-6"/>
<polygon fill="none" stroke="#000000" points="93,-6 93,-25 168,-25 168,-6 93,-6"/>
<text text-anchor="start" x="158.8862" y="-12.1" font-family="Helvetica,sans-Serif" font-size="11.00" fill="#000000"> &#160;</text>
<polygon fill="#ffffff" stroke="transparent" points="168,-6 168,-25 252,-25 252,-6 168,-6"/>
<polygon fill="none" stroke="#000000" points="168,-6 168,-25 252,-25 252,-6 168,-6"/>
<text text-anchor="start" x="233.4053" y="-12.1" font-family="Helvetica,sans-Serif" font-size="11.00" fill="#000000">0 &gt;</text>
<polygon fill="none" stroke="#000000" stroke-width="2" points="9,-5 9,-269 253,-269 253,-5 9,-5"/>
</a>
</g>
</g>
</g>
</svg>
